<?xml version="1.0"?>
<svg xmlns="http://www.w3.org/2000/svg" xmlns:xlink="http://www.w3.org/1999/xlink" xmlns:svgjs="http://svgjs.com/svgjs" version="1.1" width="512" height="512" x="0" y="0" viewBox="0 0 42.172 42.172" style="enable-background:new 0 0 512 512" xml:space="preserve" class=""><g>
<g xmlns="http://www.w3.org/2000/svg">
	<path d="M42.045,21.498c-0.292,0.781-1.039,1.297-1.873,1.297h-4.734v15.231c0,1.104-0.896,2-2,2h-8.425c-1.104,0-2-0.896-2-2   v-7.38H19.16v7.381c0,1.104-0.896,2-2,2H8.735c-1.104,0-2-0.896-2-2V22.794H2c-0.834,0-1.58-0.518-1.873-1.298   c-0.293-0.781-0.07-1.661,0.558-2.209l19.086-16.65c0.754-0.656,1.875-0.656,2.629,0l2.86,2.497   c0.19-0.906,0.995-1.587,1.958-1.587h4.908c1.104,0,2,0.896,2,2v7.321l7.358,6.42C42.115,19.835,42.338,20.715,42.045,21.498z" fill="#ffffff" data-original="#000000" style="" class=""/>
</g>
<g xmlns="http://www.w3.org/2000/svg">
</g>
<g xmlns="http://www.w3.org/2000/svg">
</g>
<g xmlns="http://www.w3.org/2000/svg">
</g>
<g xmlns="http://www.w3.org/2000/svg">
</g>
<g xmlns="http://www.w3.org/2000/svg">
</g>
<g xmlns="http://www.w3.org/2000/svg">
</g>
<g xmlns="http://www.w3.org/2000/svg">
</g>
<g xmlns="http://www.w3.org/2000/svg">
</g>
<g xmlns="http://www.w3.org/2000/svg">
</g>
<g xmlns="http://www.w3.org/2000/svg">
</g>
<g xmlns="http://www.w3.org/2000/svg">
</g>
<g xmlns="http://www.w3.org/2000/svg">
</g>
<g xmlns="http://www.w3.org/2000/svg">
</g>
<g xmlns="http://www.w3.org/2000/svg">
</g>
<g xmlns="http://www.w3.org/2000/svg">
</g>
</g></svg>
