<!-- Generated by IcoMoon.io -->
<svg version="1.1" xmlns="http://www.w3.org/2000/svg" width="32" height="32" viewBox="0 0 32 32">
<title>codechef</title>
<path fill="#5b4638" d="M14.676 0c-1.049 0.041-2.020 0.493-2.963 0.913-0.691 0.338-1.516 0.657-2.37 0.908l-0.116 0.029c-0.847 0.235-1.733 0.472-2.419 1.051-0.296 0.24-0.475 0.585-0.705 0.883-0.412 0.648-0.597 1.423-0.609 2.184 0.048 0.813 0.288 1.6 0.501 2.381 0.491 1.683 1.076 3.337 1.596 5.012 0.488 1.548 0.937 3.125 1.725 4.555 0.263 0.525 0.467 1.077 0.713 1.608 0.036 0.089 0.069 0.211 0.189 0.199 0.181-0.016 0.324-0.153 0.491-0.219 1.104-0.552 2.32-0.856 3.54-0.999 0.944-0.099 1.907-0.104 2.841 0.072 0.96 0.217 1.889 0.568 2.789 0.965 0.48 0.229 0.959 0.464 1.451 0.664 0.064 0.053 0.18 0.077 0.213-0.021 0.292-0.436 0.625-0.847 0.889-1.301 0.66-1.415 0.696-3.039 1.384-4.441 0.477-0.961 1.189-1.783 1.688-2.731 0.233-0.355 0.575-0.623 0.784-0.996 0.583-0.892 1.040-1.864 1.4-2.867 0.136-0.391 0.229-0.816 0.12-1.225-0.080-0.399-0.269-0.76-0.424-1.131-0.088-0.334-0.215-0.627-0.379-0.894l0.008 0.014c-0.543-0.901-1.427-1.532-2.324-2.048-1.393-0.787-2.928-1.292-4.468-1.707-1.446-0.402-3.147-0.702-4.893-0.839l-0.096-0.006c-0.131-0.009-0.284-0.014-0.438-0.014-0.042 0-0.084 0-0.127 0.001l0.006-0zM13.491 0.808c-0.348 0.297-0.484 0.759-0.624 1.177-0.224 0.757-0.351 1.551-0.276 2.341 0.085 1.416 0.263 2.827 0.44 4.233 0.24 1.803 0.516 3.6 0.903 5.379 0.035 0.22 0.085 0.463 0.067 0.68-0.153-0.233-0.243-0.511-0.344-0.773-0.333-1.020-0.576-2.065-0.805-3.112-0.383-1.684-0.651-3.659-0.746-5.678l-0.003-0.078c-0.033-1.124-0.005-2.301 0.493-3.335 0.157-0.301 0.345-0.613 0.64-0.796 0.075-0.042 0.165-0.066 0.261-0.066 0.010 0 0.021 0 0.031 0.001l-0.001-0zM8.688 2.36c0.171 0 0.185 0.212 0.224 0.336 0.355 1.064 0.563 2.171 0.905 3.237 0.232 0.865 0.317 1.764 0.411 2.655 0.129 1.385 0.144 2.78 0.328 4.16 0.035 0.265 0.109 0.524 0.159 0.787 0.013 0.089-0.079 0.065-0.111 0.019-0.197-0.215-0.244-0.521-0.328-0.789-0.213-0.86-0.323-1.74-0.445-2.616-0.232-1.755-0.383-3.52-0.705-5.26-0.211-0.816-0.475-1.62-0.613-2.451 0.008-0.068 0.124-0.064 0.176-0.077zM6.119 4.809c0.305 0.075 0.487 0.357 0.683 0.579 0.533 0.713 0.72 1.605 0.927 2.457 0.377 1.687 0.595 3.404 0.967 5.093 0.175 0.888 0.391 1.768 0.676 2.628 0.019 0.068 0.047 0.177 0.051 0.227-0.311-0.573-0.524-1.195-0.753-1.804-0.797-2.264-1.097-4.661-1.733-6.971-0.177-0.637-0.411-1.267-0.795-1.811-0.063-0.117-0.107-0.272-0.049-0.396 0.008-0.005 0.019-0.004 0.028-0.003zM22.98 22.404c-0.181 0.009-0.413 0.147-0.368 0.356 0.125 0.291 0.445 0.411 0.701 0.555 0.588 0.288 1.251 0.387 1.811 0.728 0.123 0.080 0.199 0.263 0.085 0.383-0.24 0.355-0.627 0.587-0.964 0.845-0.496 0.355-1.036 0.68-1.409 1.172-0.088 0.143-0.055 0.356 0.109 0.427 0.145 0.105 0.324 0.024 0.451-0.068 0.691-0.392 1.327-0.872 1.971-1.336 0.427-0.319 0.859-0.636 1.235-1.013 0.113-0.18-0.040-0.365-0.157-0.495-0.364-0.38-0.827-0.649-1.287-0.893-0.562-0.302-1.215-0.531-1.904-0.654l-0.040-0.006c-0.035-0.003-0.076-0.004-0.117-0.004s-0.082 0.001-0.122 0.004l0.005-0zM7.947 22.44c-0.703 0.179-1.329 0.56-1.965 0.897-0.567 0.324-1.139 0.661-1.607 1.121-0.143 0.163-0.23 0.378-0.23 0.613 0 0.013 0 0.026 0.001 0.039l-0-0.002c0.087 0.144 0.267 0.187 0.401 0.275 1.136 0.589 2.313 1.096 3.507 1.557 0.176 0.056 0.353 0.151 0.541 0.143 0.211-0.027 0.412-0.272 0.284-0.475-0.195-0.324-0.56-0.481-0.867-0.675-0.729-0.404-1.539-0.683-2.181-1.224-0.061-0.121 0.125-0.171 0.189-0.24 0.732-0.527 1.639-0.791 2.284-1.436 0.119-0.12 0.219-0.345 0.064-0.477-0.115-0.097-0.275-0.116-0.421-0.117zM18.767 23.497c-0.573 0.036-1.113 0.575-1.032 1.168 0.043 0.345 0.119 0.7 0.304 0.999 0.16 0.24 0.44 0.381 0.728 0.383 0.364 0.041 0.787-0.079 0.968-0.424 0.183-0.316 0.283-0.685 0.273-1.049-0.051-0.613-0.621-1.127-1.241-1.076zM12.78 23.511c-0.619 0.037-1.076 0.673-1.027 1.271 0.015 0.592 0.42 1.203 1.020 1.325 0.469 0.080 0.947-0.253 1.071-0.707 0.167-0.467 0.176-1.015-0.059-1.46-0.209-0.333-0.637-0.436-1.005-0.429zM12.929 24.381c0.321 0.085 0.392 0.627 0.060 0.744-0.188 0.045-0.319-0.16-0.312-0.325-0.011-0.169 0.067-0.383 0.252-0.419zM18.845 24.572c0.129 0 0.301 0.095 0.253 0.249-0.017 0.228-0.287 0.444-0.503 0.301-0.176-0.093-0.229-0.395-0.027-0.491 0.073-0.038 0.16-0.061 0.253-0.061 0.008 0 0.016 0 0.025 0.001l-0.001-0zM14.155 28.541c-0.737 0.068-1.392 0.447-2.056 0.745-0.405 0.208-0.883 0.416-1.34 0.249-0.503-0.16-0.943-0.467-1.412-0.693-0.1-0.017-0.081 0.103-0.063 0.163 0.108 0.707 0.172 1.469 0.605 2.067 0.451 0.583 1.203 0.824 1.911 0.889 1.063 0.096 2.189-0.157 3.028-0.839 0.412-0.349 0.761-0.841 0.78-1.399-0.008-0.432-0.325-0.795-0.699-0.979-0.212-0.128-0.467-0.204-0.741-0.204-0.005 0-0.010 0-0.015 0h0.001zM17.595 28.552c-0.528 0.069-1.087 0.349-1.296 0.867-0.172 0.477 0.045 0.997 0.363 1.36 0.568 0.679 1.427 1.057 2.291 1.179 0.769 0.104 1.581 0.019 2.285-0.32 0.584-0.3 1.023-0.873 1.133-1.523 0.085-0.388 0.108-0.787 0.165-1.179-0.088-0.104-0.197 0.051-0.291 0.069-0.449 0.189-0.863 0.489-1.347 0.58-0.484 0.032-0.916-0.229-1.353-0.391-0.573-0.237-1.135-0.537-1.753-0.637-0.043-0.004-0.092-0.006-0.142-0.006-0.019 0-0.039 0-0.058 0.001l0.003-0zM13.753 21.764c-0.093 0-0.191 0.019-0.288 0.040-0.235 0.058-0.437 0.128-0.63 0.212l0.025-0.010c-0.2 0.081-0.389 0.169-0.543 0.24-0.061 0.030-0.157 0.071-0.254 0.11l-0.037 0.013c-0.017 0.003-0.037 0.005-0.057 0.005-0.068 0-0.132-0.018-0.187-0.051l0.002 0.001c-0.083-0.049-0.16-0.135-0.188-0.34l-0.36 0.051c0.041 0.291 0.187 0.493 0.36 0.6 0.173 0.105 0.357 0.12 0.504 0.089 0.113-0.024 0.213-0.077 0.368-0.148s0.34-0.157 0.529-0.235c0.191-0.077 0.384-0.147 0.547-0.184 0.057-0.017 0.124-0.027 0.192-0.027 0.051 0 0.101 0.006 0.149 0.016l-0.005-0.001c0.187 0.080 0.253 0.173 0.287 0.239 0.033 0.067 0.040 0.089 0.040 0.089l0.351-0.080c0 0 0.003-0.032-0.067-0.171-0.103-0.186-0.265-0.33-0.461-0.407l-0.006-0.002c-0.073-0.031-0.158-0.050-0.248-0.050-0.008 0-0.016 0-0.024 0l0.001-0zM17.412 27.013c-0.055 0.001-0.103 0.027-0.136 0.066l-0 0c0 0-0.163 0.197-0.381 0.393-0.22 0.197-0.507 0.373-0.657 0.377-0.149 0.004-0.419-0.157-0.627-0.347-0.207-0.187-0.356-0.379-0.356-0.379-0.033-0.048-0.088-0.079-0.15-0.079-0.1 0-0.181 0.081-0.181 0.181 0 0.046 0.017 0.089 0.046 0.121l-0-0c0 0 0.165 0.213 0.399 0.425 0.233 0.213 0.529 0.449 0.88 0.44 0.345-0.011 0.645-0.253 0.888-0.469 0.243-0.217 0.42-0.433 0.42-0.433 0.026-0.031 0.042-0.072 0.042-0.116 0-0.1-0.081-0.181-0.181-0.181-0.002 0-0.003 0-0.005 0h0zM14.676 0.001c-1.049 0.040-2.020 0.491-2.963 0.912-0.691 0.338-1.516 0.657-2.37 0.908l-0.116 0.029c-0.847 0.235-1.733 0.472-2.419 1.051-0.296 0.24-0.475 0.587-0.705 0.884-0.412 0.647-0.597 1.421-0.609 2.183 0.048 0.813 0.288 1.6 0.501 2.381 0.491 1.684 1.076 3.337 1.596 5.012 0.488 1.548 0.937 3.125 1.725 4.556 0.263 0.524 0.467 1.076 0.713 1.607 0.036 0.089 0.069 0.211 0.189 0.2 0.181-0.017 0.324-0.155 0.491-0.22 1.104-0.552 2.32-0.855 3.54-0.999 0.944-0.099 1.907-0.104 2.841 0.073 0.96 0.217 1.889 0.567 2.789 0.964 0.48 0.229 0.959 0.464 1.451 0.664 0.064 0.053 0.18 0.077 0.213-0.021 0.292-0.436 0.625-0.847 0.889-1.3 0.66-1.416 0.696-3.040 1.384-4.443 0.477-0.961 1.189-1.781 1.688-2.729 0.233-0.355 0.575-0.624 0.784-0.996 0.583-0.893 1.040-1.867 1.4-2.868 0.136-0.391 0.229-0.816 0.12-1.225-0.080-0.397-0.269-0.76-0.424-1.131-0.088-0.333-0.215-0.626-0.379-0.893l0.008 0.014c-0.543-0.901-1.427-1.533-2.324-2.048-1.393-0.788-2.928-1.293-4.468-1.708-1.446-0.402-3.147-0.702-4.893-0.839l-0.096-0.006c-0.126-0.009-0.274-0.013-0.423-0.013-0.048 0-0.096 0.001-0.143 0.002l0.007-0zM13.491 0.809c-0.348 0.296-0.484 0.757-0.624 1.177-0.224 0.756-0.351 1.551-0.276 2.34 0.085 1.416 0.263 2.827 0.44 4.233 0.24 1.803 0.516 3.601 0.903 5.379 0.035 0.22 0.085 0.463 0.067 0.68-0.153-0.233-0.243-0.511-0.344-0.773-0.333-1.020-0.576-2.065-0.805-3.112-0.383-1.684-0.651-3.658-0.746-5.677l-0.003-0.078c-0.033-1.125-0.005-2.303 0.493-3.336 0.157-0.3 0.345-0.613 0.64-0.796 0.075-0.042 0.165-0.066 0.261-0.066 0.010 0 0.021 0 0.031 0.001l-0.001-0zM8.688 2.36c0.171 0 0.185 0.213 0.224 0.336 0.355 1.064 0.563 2.171 0.905 3.239 0.232 0.864 0.317 1.763 0.411 2.653 0.129 1.387 0.144 2.781 0.328 4.16 0.035 0.265 0.109 0.525 0.159 0.787 0.013 0.091-0.079 0.067-0.111 0.019-0.197-0.213-0.244-0.52-0.328-0.789-0.213-0.86-0.323-1.739-0.445-2.616-0.232-1.753-0.383-3.52-0.705-5.26-0.211-0.816-0.475-1.62-0.613-2.451 0.008-0.068 0.124-0.064 0.176-0.077zM6.119 4.811c0.305 0.073 0.487 0.356 0.683 0.577 0.533 0.713 0.72 1.605 0.927 2.457 0.377 1.687 0.595 3.405 0.967 5.093 0.175 0.888 0.391 1.769 0.676 2.628 0.019 0.068 0.047 0.177 0.051 0.227-0.311-0.573-0.524-1.195-0.753-1.803-0.797-2.267-1.097-4.663-1.733-6.973-0.177-0.636-0.411-1.267-0.795-1.809-0.063-0.116-0.107-0.272-0.049-0.395 0.008-0.005 0.019-0.004 0.028-0.003zM22.98 22.404c-0.181 0.009-0.413 0.147-0.368 0.357 0.125 0.289 0.445 0.409 0.701 0.555 0.588 0.287 1.251 0.385 1.811 0.727 0.123 0.080 0.199 0.263 0.085 0.383-0.24 0.356-0.627 0.587-0.964 0.845-0.496 0.355-1.036 0.68-1.409 1.172-0.088 0.143-0.055 0.356 0.109 0.427 0.145 0.105 0.324 0.025 0.451-0.067 0.691-0.393 1.327-0.873 1.971-1.336 0.427-0.32 0.859-0.637 1.235-1.015 0.113-0.18-0.040-0.365-0.157-0.493-0.364-0.381-0.827-0.651-1.287-0.896-0.562-0.301-1.215-0.529-1.904-0.651l-0.040-0.006c-0.038-0.003-0.082-0.005-0.126-0.005-0.038 0-0.075 0.001-0.112 0.004l0.005-0zM7.945 22.443c-0.703 0.177-1.329 0.56-1.965 0.896-0.567 0.324-1.139 0.663-1.607 1.123-0.143 0.163-0.23 0.378-0.23 0.613 0 0.013 0 0.025 0.001 0.038l-0-0.002c0.087 0.145 0.267 0.187 0.401 0.275 1.136 0.589 2.313 1.097 3.507 1.557 0.176 0.056 0.353 0.151 0.541 0.144 0.211-0.027 0.412-0.273 0.284-0.476-0.195-0.324-0.56-0.481-0.867-0.675-0.729-0.404-1.539-0.683-2.181-1.224-0.061-0.12 0.125-0.171 0.189-0.24 0.732-0.525 1.639-0.789 2.284-1.436 0.119-0.12 0.219-0.344 0.064-0.476-0.115-0.099-0.275-0.117-0.421-0.117zM18.765 23.499c-0.573 0.037-1.113 0.576-1.032 1.168 0.043 0.347 0.119 0.701 0.304 1 0.16 0.239 0.44 0.38 0.728 0.383 0.364 0.040 0.787-0.080 0.968-0.425 0.183-0.315 0.283-0.685 0.273-1.049-0.051-0.613-0.621-1.125-1.241-1.076zM12.779 23.512c-0.619 0.037-1.076 0.673-1.027 1.271 0.015 0.592 0.42 1.203 1.020 1.327 0.469 0.079 0.947-0.253 1.071-0.707 0.167-0.467 0.176-1.016-0.059-1.461-0.209-0.332-0.637-0.436-1.005-0.429zM12.928 24.384c0.321 0.084 0.392 0.627 0.060 0.743-0.188 0.045-0.319-0.16-0.312-0.325-0.011-0.169 0.067-0.383 0.252-0.417zM18.844 24.573c0.129 0 0.301 0.096 0.253 0.249-0.017 0.229-0.287 0.444-0.503 0.303-0.176-0.095-0.229-0.396-0.027-0.492 0.073-0.038 0.16-0.061 0.253-0.061 0.008 0 0.016 0 0.025 0.001l-0.001-0zM14.153 28.543c-0.737 0.069-1.392 0.448-2.056 0.747-0.405 0.207-0.883 0.415-1.34 0.248-0.503-0.159-0.943-0.467-1.412-0.693-0.1-0.016-0.081 0.104-0.063 0.163 0.108 0.707 0.172 1.469 0.605 2.067 0.451 0.584 1.203 0.825 1.911 0.889 1.063 0.096 2.189-0.157 3.028-0.839 0.412-0.349 0.761-0.84 0.78-1.399-0.008-0.432-0.325-0.795-0.699-0.979-0.212-0.128-0.467-0.204-0.741-0.204-0.005 0-0.010 0-0.015 0h0.001zM17.593 28.553c-0.528 0.069-1.087 0.349-1.296 0.867-0.172 0.479 0.045 0.997 0.363 1.361 0.568 0.677 1.427 1.056 2.291 1.177 0.769 0.104 1.581 0.020 2.285-0.32 0.584-0.3 1.023-0.873 1.133-1.523 0.085-0.387 0.108-0.787 0.165-1.179-0.088-0.103-0.197 0.052-0.291 0.069-0.449 0.191-0.863 0.489-1.347 0.581-0.484 0.032-0.916-0.229-1.353-0.392-0.573-0.237-1.135-0.536-1.753-0.636-0.046-0.005-0.099-0.007-0.153-0.007-0.016 0-0.031 0-0.047 0.001l0.002-0z"></path>
</svg>
