<svg width="379" height="379" viewBox="0 0 379 379" fill="none" xmlns="http://www.w3.org/2000/svg">
<path d="M205.415 308.128C174.31 308.128 149.003 333.657 149.003 365.035V373.448H261.828V365.035C261.828 333.657 236.521 308.128 205.415 308.128Z" fill="#D2DFF7"/>
<path d="M205.415 308.128C174.305 308.128 149.003 333.662 149.003 365.035V373.448H176.815V346.39C176.815 342.153 178.033 338.009 180.303 334.432C188.402 321.669 201.407 312.366 216.619 309.26C212.996 308.52 209.25 308.128 205.415 308.128Z" fill="#ADC0ED"/>
<path d="M140.056 256.571C161.733 234.894 161.733 199.747 140.056 178.069C118.378 156.392 83.2314 156.392 61.5537 178.069C39.876 199.747 39.876 234.894 61.5537 256.571C83.2313 278.249 118.378 278.249 140.056 256.571Z" fill="#CB5935"/>
<path d="M103.873 237.466C118.631 237.466 130.594 225.502 130.594 210.744C130.594 195.986 118.631 184.022 103.873 184.022C89.1147 184.022 77.1509 195.986 77.1509 210.744C77.1509 225.502 89.1147 237.466 103.873 237.466Z" fill="#FFBF9D"/>
<path d="M306.957 237.466C321.715 237.466 333.679 225.502 333.679 210.744C333.679 195.986 321.715 184.022 306.957 184.022C292.199 184.022 280.236 195.986 280.236 210.744C280.236 225.502 292.199 237.466 306.957 237.466Z" fill="#FFBF9D"/>
<path d="M235.902 313.887C280.573 300.865 313.214 259.619 313.214 210.745C313.214 151.413 265.116 103.315 205.784 103.315C146.455 103.315 98.3564 151.413 98.3564 210.745C98.3564 259.619 130.999 300.865 175.668 313.887C185.224 316.672 195.329 318.172 205.784 318.172C216.24 318.173 226.345 316.673 235.902 313.887Z" fill="#FFD4BD"/>
<path d="M133.968 210.745C133.968 157.48 172.736 113.277 223.591 104.793C217.798 103.826 211.851 103.315 205.784 103.315C146.455 103.315 98.3564 151.413 98.3564 210.745C98.3564 270.075 146.455 318.172 205.784 318.172C211.851 318.172 217.798 317.661 223.591 316.694C172.736 308.211 133.968 264.008 133.968 210.745Z" fill="#FFBF9D"/>
<path d="M250.169 184.019C266.42 201.497 289.352 211.221 313.214 210.744C313.214 151.049 264.743 103.315 205.784 103.315C146.455 103.315 98.3564 151.413 98.3564 210.745V210.764C150.806 221.649 205.104 211.859 250.169 184.019Z" fill="#DD6642"/>
<path d="M223.576 104.795C217.783 103.827 211.84 103.315 205.784 103.315C146.455 103.315 98.3564 151.413 98.3564 210.745V210.764C110.205 213.223 122.147 214.616 134.056 214.995C134.002 213.584 133.968 212.168 133.968 210.745C133.968 157.485 172.729 113.285 223.576 104.795Z" fill="#CB5935"/>
<path d="M287.344 5.55324C285.703 5.55324 125.138 5.55324 123.491 5.55324C111.226 5.55324 101.284 15.4961 101.284 27.7603V184.024C167.505 155.166 242.984 155.017 309.551 184.024V27.7603C309.551 15.4953 299.609 5.55324 287.344 5.55324Z" fill="#D2DFF7"/>
<path d="M160.851 5.55176H123.486C111.221 5.55176 101.279 15.4938 101.279 27.7588V184.022C114.342 178.33 127.756 173.763 141.381 170.309V52.5574C141.381 34.9265 148.385 18.018 160.851 5.55176Z" fill="#ADC0ED"/>
<path d="M141.384 41.4539C135.252 41.4539 130.281 46.4253 130.281 52.5574V136.412C130.281 142.544 135.252 147.515 141.384 147.515C147.516 147.515 152.488 142.544 152.488 136.412V52.5574C152.488 46.4253 147.516 41.4539 141.384 41.4539Z" fill="#ADC0ED"/>
<path d="M205.415 41.4539C199.283 41.4539 194.312 46.4253 194.312 52.5574V136.412C194.312 142.544 199.283 147.515 205.415 147.515C211.547 147.515 216.519 142.544 216.519 136.412V52.5574C216.519 46.4253 211.547 41.4539 205.415 41.4539Z" fill="#ADC0ED"/>
<path d="M269.447 41.4539C263.315 41.4539 258.343 46.4253 258.343 52.5574V136.412C258.343 142.544 263.315 147.515 269.447 147.515C275.579 147.515 280.55 142.544 280.55 136.412V52.5574C280.55 46.4253 275.579 41.4539 269.447 41.4539Z" fill="#ADC0ED"/>
<path d="M168.772 250.645C168.749 257.97 161.273 263.885 152.075 263.856C142.877 263.827 135.438 257.866 135.461 250.54C135.484 243.215 142.96 237.301 152.158 237.33C161.357 237.358 168.795 243.319 168.772 250.645Z" fill="#FF8E9E"/>
<path d="M242.056 250.861C242.033 258.186 249.471 264.147 258.67 264.176C267.868 264.205 275.344 258.291 275.366 250.965C275.389 243.64 267.952 237.679 258.753 237.65C249.554 237.62 242.079 243.536 242.056 250.861Z" fill="#FF8E9E"/>
<path d="M158.04 222.811C154.974 222.811 152.488 225.296 152.488 228.362V235.765C152.488 238.831 154.974 241.316 158.04 241.316C161.106 241.316 163.592 238.831 163.592 235.765V228.362C163.592 225.296 161.106 222.811 158.04 222.811Z" fill="black"/>
<path d="M252.79 222.811C249.724 222.811 247.238 225.296 247.238 228.362V235.765C247.238 238.831 249.724 241.316 252.79 241.316C255.856 241.316 258.342 238.831 258.342 235.765V228.362C258.342 225.296 255.856 222.811 252.79 222.811Z" fill="black"/>
<path d="M220.024 244.08C217.257 242.757 213.943 243.928 212.621 246.694C211.387 249.273 208.705 250.939 205.785 250.939C202.866 250.939 200.183 249.273 198.95 246.694C197.628 243.928 194.312 242.758 191.547 244.08C188.78 245.403 187.61 248.718 188.933 251.484C192 257.898 198.615 262.043 205.785 262.043C212.955 262.043 219.571 257.898 222.637 251.484C223.96 248.718 222.79 245.403 220.024 244.08Z" fill="black"/>
<path d="M339.231 210.744C339.231 195.768 329.156 183.123 315.101 179.51V27.7588C315.101 12.4522 302.649 0 287.342 0H123.489C108.182 0 95.7301 12.4522 95.7301 27.7588V156.494C64.4396 159.1 39.7691 185.381 39.7691 217.334C39.7691 234.374 46.9931 250.776 59.5881 262.331C61.8503 264.405 65.3612 264.25 67.4324 261.993C69.5051 259.733 69.3541 256.221 67.0941 254.148C56.7849 244.691 50.8719 231.272 50.8719 217.334C50.8719 191.507 70.568 170.193 95.7293 167.627V179.51C81.6738 183.123 71.5984 195.769 71.5984 210.745C71.5984 226.107 82.2016 239.017 96.8279 242.239C99.3121 250.833 102.812 259.081 107.28 266.872C99.3913 267.906 91.4575 267.042 84.0877 264.411C81.2 263.381 78.0237 264.885 76.9925 267.773C75.9614 270.661 77.467 273.837 80.3547 274.868C90.9778 278.66 102.568 279.453 113.828 276.992C126.619 294.653 144.631 308.788 166.146 316.755C151.926 328.502 143.45 346.118 143.45 365.036V373.448C143.45 376.514 145.936 379 149.002 379H261.827C264.894 379 267.379 376.514 267.379 373.448V365.036C267.379 359.006 266.523 353.039 264.834 347.301C263.968 344.36 260.882 342.677 257.94 343.542C254.998 344.407 253.316 347.493 254.181 350.435C255.57 355.155 256.274 360.068 256.274 365.036V367.896H182.365V346.39C182.365 343.217 183.272 340.111 184.988 337.407C188.233 332.293 192.665 327.883 198.875 323.583C201.046 323.707 203.225 323.777 205.414 323.779C214.187 323.779 222.814 322.779 231.217 320.811C236.47 323.944 241.09 327.959 244.959 332.784C246.878 335.176 250.371 335.561 252.763 333.642C255.155 331.724 255.539 328.23 253.621 325.838C250.931 322.482 247.937 319.451 244.675 316.753C277.582 304.539 303.848 277.264 314.002 242.239C328.629 239.016 339.231 226.106 339.231 210.744ZM307.191 205.145C296.815 204.545 273.166 200.826 254.071 180.408C252.292 178.327 249.261 177.853 246.933 179.292C203.905 205.874 153.174 215.361 103.586 206.197C103.856 200.069 104.674 193.989 106.023 188.052C169.349 161.27 241.467 161.27 304.795 188.048C306.073 193.662 306.876 199.386 307.191 205.145ZM106.834 27.7588C106.834 18.5747 114.305 11.1035 123.489 11.1035H287.342C296.525 11.1035 303.997 18.5747 303.997 27.7588V175.694C272.44 163.125 238.932 156.844 205.415 156.844C171.902 156.844 138.387 163.127 106.834 175.694V27.7588ZM175.615 331.457C172.768 335.944 171.263 341.107 171.263 346.389V367.896H154.554V365.036C154.554 346.81 164.106 330.053 179.613 320.804C180.953 321.117 182.296 321.409 183.646 321.673C180.488 324.719 177.848 327.939 175.615 331.457ZM205.415 312.675H205.393C157.359 312.675 115.41 278.602 105.631 231.656C104.588 226.639 97.8124 225.594 95.3274 230.131C87.8192 226.85 82.7027 219.389 82.7027 210.745C82.7027 202.642 87.1974 195.58 93.9424 192.024C92.2169 202.368 92.3813 210.745 92.3813 210.745C92.3813 213.356 94.2363 215.664 96.8434 216.188C111.383 219.21 126.037 220.704 140.605 220.703C178.48 220.703 215.775 210.609 248.949 191.044C270.572 212.126 295.776 215.797 307.191 216.3C304.304 270.191 259.728 312.659 205.415 312.675ZM316.907 229.453C317.927 223.317 318.449 217.072 318.449 210.744C318.449 210.73 318.447 210.717 318.447 210.703C318.444 204.438 317.912 198.187 316.882 192.02C323.629 195.576 328.127 202.639 328.127 210.744C328.127 218.838 323.641 225.894 316.907 229.453Z" fill="black"/>
<path d="M141.384 35.9021C138.318 35.9021 135.832 38.3878 135.832 41.4539C135.832 44.5199 138.318 47.0056 141.384 47.0056C144.446 47.0056 146.936 49.4958 146.936 52.5574V136.412C146.936 137.495 146.62 138.547 146.023 139.453C144.337 142.015 145.046 145.458 147.607 147.144C150.173 148.832 153.613 148.117 155.297 145.56C157.091 142.835 158.04 139.671 158.04 136.412V52.5574C158.039 43.3733 150.568 35.9021 141.384 35.9021Z" fill="black"/>
<path d="M210.967 52.5574V136.412C210.967 137.495 210.651 138.547 210.054 139.453C208.368 142.015 209.077 145.458 211.638 147.144C214.204 148.832 217.644 148.117 219.328 145.56C221.122 142.835 222.071 139.671 222.071 136.412V52.5574C222.071 43.3733 214.6 35.9021 205.416 35.9021C202.35 35.9021 199.864 38.3878 199.864 41.4539C199.864 44.5199 202.35 47.0056 205.416 47.0056C208.477 47.0056 210.967 49.4958 210.967 52.5574Z" fill="black"/>
<path d="M269.447 47.0056C272.508 47.0056 274.999 49.4958 274.999 52.5574V136.412C274.999 137.495 274.682 138.547 274.087 139.454C272.4 142.015 273.109 145.458 275.671 147.144C278.235 148.832 281.676 148.118 283.36 145.56C285.155 142.835 286.103 139.671 286.103 136.412V52.5574C286.103 43.3733 278.631 35.9021 269.448 35.9021C266.381 35.9021 263.896 38.3878 263.896 41.4539C263.896 44.5199 266.381 47.0056 269.447 47.0056Z" fill="black"/>
<path d="M205.415 355.272C208.481 355.272 210.967 352.786 210.967 349.72C210.967 346.654 208.481 344.168 205.415 344.168C202.349 344.168 199.863 346.654 199.863 349.72C199.863 352.786 202.349 355.272 205.415 355.272Z" fill="black"/>
</svg>
