<svg width="23" height="23" viewBox="0 0 23 23" fill="none" xmlns="http://www.w3.org/2000/svg">
<path d="M22.1316 9.50048L12.7501 9.50003C12.3358 9.50003 12 9.83578 12 10.25V13.247C12 13.6612 12.3358 13.997 12.75 13.997H18.0331C17.4546 15.4984 16.3749 16.7557 14.9973 17.5546L17.25 21.4542C20.8636 19.3643 23 15.6974 23 11.5925C23 11.008 22.9569 10.5902 22.8708 10.1197C22.8053 9.76228 22.4949 9.50048 22.1316 9.50048Z" fill="#167EE6"/>
<path d="M11.5 18.5C8.91456 18.5 6.65751 17.0874 5.44529 14.997L1.5458 17.2447C3.53023 20.684 7.24769 23 11.5 23C13.586 23 15.5544 22.4384 17.25 21.4595V21.4542L14.9973 17.5545C13.9669 18.1522 12.7745 18.5 11.5 18.5Z" fill="#12B347"/>
<path d="M17.25 21.4595V21.4542L14.9973 17.5545C13.9669 18.1521 12.7746 18.5 11.5 18.5V23C13.586 23 15.5545 22.4383 17.25 21.4595Z" fill="#0F993E"/>
<path d="M4.5 11.5C4.5 10.2256 4.84779 9.03333 5.4453 8.00296L1.54581 5.75534C0.561613 7.44562 0 9.40861 0 11.5C0 13.5914 0.561613 15.5544 1.54581 17.2446L5.4453 14.997C4.84779 13.9667 4.5 12.7744 4.5 11.5Z" fill="#FFD500"/>
<path d="M11.5 4.5C13.186 4.5 14.7346 5.09908 15.9442 6.09558C16.2426 6.3414 16.6763 6.32365 16.9497 6.0503L19.0731 3.92685C19.3833 3.61671 19.3612 3.10904 19.0299 2.82163C17.0032 1.06344 14.3663 0 11.5 0C7.24769 0 3.53023 2.31604 1.5458 5.75535L5.44529 8.00297C6.65751 5.91262 8.91456 4.5 11.5 4.5Z" fill="#FF4B26"/>
<path d="M15.9442 6.09558C16.2426 6.3414 16.6764 6.32365 16.9497 6.0503L19.0732 3.92685C19.3833 3.61671 19.3612 3.10904 19.0299 2.82163C17.0032 1.06339 14.3663 0 11.5 0V4.5C13.1859 4.5 14.7346 5.09908 15.9442 6.09558Z" fill="#D93F21"/>
</svg>
