<svg id="Capa_1" enable-background="new 0 0 512 512" height="512" viewBox="0 0 512 512" width="512" xmlns="http://www.w3.org/2000/svg"><g><circle cx="308.097" cy="85.798" r="11.054"/><path d="m279.405 108.09h-46.812c-4.143 0-7.5 3.358-7.5 7.5s3.357 7.5 7.5 7.5h46.812c4.143 0 7.5-3.358 7.5-7.5s-3.357-7.5-7.5-7.5z"/><path d="m203.903 74.744c-6.105 0-11.054 4.949-11.054 11.054s4.949 11.054 11.054 11.054 11.054-4.949 11.054-11.054-4.949-11.054-11.054-11.054z"/><path d="m370.351 0c-20.943 0-40.999 7.119-57.176 20.174-16.176-13.055-36.232-20.174-57.175-20.174s-40.999 7.119-57.176 20.174c-16.177-13.055-36.233-20.174-57.176-20.174-50.275 0-91.177 40.902-91.177 91.178 0 33.224 17.865 62.35 44.49 78.288v157.882c0 43.074 34.023 78.344 76.606 80.363v41.947h-8.342c-17.188 0-31.171 13.983-31.171 31.171s13.984 31.171 31.172 31.171h39.513c17.188 0 31.171-13.983 31.171-31.171v-73.021h47.826v41.849h-8.341c-17.188 0-31.171 13.983-31.171 31.171s13.982 31.172 31.17 31.172h39.513c17.188 0 31.171-13.983 31.171-31.171v-73.382c40.861-3.796 72.96-38.262 72.96-80.099v-157.883c26.625-15.938 44.49-45.064 44.49-78.288.001-50.275-40.902-91.177-91.177-91.177zm-167.612 497h-39.513c-8.917 0-16.171-7.254-16.171-16.171s7.254-16.171 16.171-16.171h15.842c4.142 0 7.5-3.358 7.5-7.5v-25.218h32.342v48.889c0 8.917-7.255 16.171-16.171 16.171zm110.168 0h-39.513c-8.917 0-16.171-7.254-16.171-16.171s7.254-16.171 16.171-16.171h15.841c4.142 0 7.5-3.358 7.5-7.5v-25.218h32.343v48.889c0 8.917-7.254 16.171-16.171 16.171zm89.132-169.652c0 36.095-29.365 65.46-65.46 65.46h-.001-.001c-140.252 0-124.135 0-161.155 0-36.095 0-65.46-29.365-65.46-65.46v-150.675c10.491 3.9 21.314 5.682 31.687 5.682 20.766 0 40.857-7.005 57.176-20.174 15.704 12.674 35.632 20.174 57.176 20.174 20.943 0 40.999-7.119 57.175-20.174 16.177 13.056 36.233 20.174 57.176 20.174 10.384 0 21.208-1.786 31.688-5.683v150.676zm-31.688-159.993c-19.394 0-37.878-7.31-52.049-20.582-2.897-2.715-7.39-2.683-10.254 0-13.828 12.951-32.187 20.582-52.048 20.582-19.394 0-37.878-7.31-52.049-20.582-2.884-2.701-7.37-2.701-10.254 0-14.171 13.272-32.655 20.582-52.049 20.582-42.013 0-76.177-34.201-76.177-76.177 0-42.005 34.173-76.178 76.177-76.178 19.394 0 37.878 7.31 52.049 20.582 2.884 2.701 7.37 2.701 10.254 0 14.171-13.272 32.655-20.582 52.049-20.582s37.878 7.31 52.048 20.582c2.884 2.702 7.371 2.702 10.254 0 14.171-13.272 32.656-20.582 52.049-20.582 42.005 0 76.178 34.173 76.178 76.178 0 41.868-34.058 76.177-76.178 76.177z"/><path d="m256 203.533c-15.33 0-27.802 12.472-27.802 27.802v74.586c0 15.33 12.472 27.802 27.802 27.802s27.802-12.472 27.802-27.802v-74.586c0-15.33-12.472-27.802-27.802-27.802zm12.802 102.388c0 7.059-5.743 12.802-12.802 12.802s-12.802-5.743-12.802-12.802v-74.586c0-7.059 5.743-12.802 12.802-12.802s12.802 5.743 12.802 12.802z"/><path d="m169.551 203.533c-15.33 0-27.802 12.472-27.802 27.802v74.586c0 15.33 12.472 27.802 27.802 27.802s27.802-12.472 27.802-27.802v-74.586c0-15.33-12.472-27.802-27.802-27.802zm12.802 102.388c0 7.059-5.743 12.802-12.802 12.802s-12.802-5.743-12.802-12.802v-74.586c0-7.059 5.743-12.802 12.802-12.802s12.802 5.743 12.802 12.802z"/><path d="m342.449 203.533c-15.33 0-27.802 12.472-27.802 27.802v74.586c0 15.33 12.472 27.802 27.802 27.802s27.802-12.472 27.802-27.802v-74.586c0-15.33-12.472-27.802-27.802-27.802zm12.802 102.388c0 7.059-5.743 12.802-12.802 12.802s-12.802-5.743-12.802-12.802v-74.586c0-7.059 5.743-12.802 12.802-12.802s12.802 5.743 12.802 12.802z"/></g></svg>