<svg id="Capa_1" enable-background="new 0 0 512 512" height="512" viewBox="0 0 512 512" width="512" xmlns="http://www.w3.org/2000/svg"><g><path d="m337.306 182.382c4.266-4.266 4.266-11.182 0-15.447s-11.182-4.266-15.447 0c-4.266 4.266-4.266 11.182 0 15.447 4.266 4.266 11.182 4.266 15.447 0z"/><path d="m302.946 253.535 32.71-32.709c2.929-2.929 2.929-7.678 0-10.606s-7.677-2.93-10.608 0l-32.709 32.709c-2.929 2.929-2.929 7.678 0 10.606 2.929 2.93 7.677 2.93 10.607 0z"/><circle cx="256.778" cy="247.463" r="10.923"/><path d="m82.378 377.282c-8.625-8.625-22.588-8.626-31.213 0-8.625 8.622-8.631 22.588-.001 31.215 8.624 8.625 22.587 8.629 31.214.001 8.626-8.624 8.629-22.588 0-31.216.001 0 .001 0 0 0zm-10.607 20.609c-2.762 2.763-7.236 2.765-10.001-.001-2.763-2.762-2.766-7.235.001-10.001 2.763-2.764 7.237-2.764 10 0h.001c2.763 2.763 2.766 7.236-.001 10.002z"/><path d="m102.568 325.877c-8.626 8.625-8.63 22.587-.001 31.216 8.625 8.624 22.588 8.628 31.214 0 8.625-8.623 8.631-22.587.001-31.215 0 0 0 0-.001-.001-8.624-8.625-22.587-8.626-31.213 0zm20.608 10.608c2.763 2.762 2.766 7.236-.001 10.001-2.763 2.764-7.236 2.764-10.001 0-2.762-2.762-2.766-7.237.001-10.001 2.761-2.764 7.238-2.765 10.001 0-.001-.001 0-.001 0 0z"/><path d="m500.347 182.159c-14.666-14.666-105.305-105.305-118.143-118.143-15.565-15.565-40.795-15.576-56.379.007-8.091 8.091-285.072 285.068-311.355 311.35-19.295 19.296-19.292 50.526 0 69.817 19.296 19.296 50.525 19.293 69.818 0l103.476-103.475c17.471 17.471 68.097 68.095 76.514 76.512 15.544 15.542 40.829 15.542 56.372 0l179.689-179.69c15.545-15.545 15.548-40.836.008-56.378zm-426.667 252.425c-13.432 13.434-35.174 13.43-48.603 0-13.434-13.433-13.429-35.176.001-48.603l103.474-103.475 48.604 48.604zm171.721-56.447c-1.799-1.799-103.922-103.92-106.238-106.236l197.27-197.271c9.708-9.708 25.443-9.728 35.164-.007l88.661 88.66c-9.112 5.694-39.705 11.852-57.27 49.031-6.879 14.663-18.743 26.526-33.425 33.415-.493.34-27.33 11.093-41.393 41.026-11.441 24.985-34.176 34.246-34.511 34.48-17.82 8.373-32.245 22.796-40.618 40.619zm244.331-150.207-179.69 179.69c-9.693 9.692-25.464 9.693-35.157 0l-18.205-18.205 9.939-21.185c11.524-24.53 33.834-33.533 34.178-33.774 17.314-8.116 32.006-22.286 40.602-40.578 12.835-26.508 32.862-33.421 34.555-34.578 18.037-8.462 32.59-23.132 40.914-41.246 6.45-14.058 18.313-26.423 33.471-33.546l21.196-9.947 18.204 18.205c9.693 9.692 9.69 25.468-.007 35.164z"/></g></svg>