<?xml version="1.0" encoding="iso-8859-1"?>
<!-- Generator: Adobe Illustrator 18.1.1, SVG Export Plug-In . SVG Version: 6.00 Build 0)  -->
<svg version="1.1" id="Capa_1" xmlns="http://www.w3.org/2000/svg" xmlns:xlink="http://www.w3.org/1999/xlink" x="0px" y="0px"
	 viewBox="0 0 310.958 310.958" style="enable-background:new 0 0 310.958 310.958;" xml:space="preserve">
<g>
	<path style="fill:#010002;" d="M17.745,50.7c-2.692,2.187-4.514,5.526-4.509,10.057c0.136,78.578,3.492,157.118,3.628,235.691
		c0.011,7.685,6.19,13.239,13.598,13.598c44.742,2.187,89.451-0.005,134.165-1.882c22.355-0.936,44.709-1.632,67.08-1.746
		c14.038-0.071,34.951,4.52,47.586-4.139c17.459-11.971,17.302-32.988,18.096-52.59c1.207-29.92-1.12-60.064-3.013-89.913
		c-1.447-22.784-1.148-44.269-0.114-67.064c1.088-23.997-1.86-44.084-28.218-49.001c-13.152-2.453-26.635-2.23-40.167-1.333
		c0-9.638,0-19.276,0-28.914c0-17.536-27.195-17.536-27.195,0c0,10.351,0,20.701,0,31.057c-6.331,0.468-12.635,0.832-18.874,0.848
		c-20.93,0.044-41.854,0.348-62.778,0.685c-0.294-12.086-1.099-24.139-3.144-36.202C110.96-7.411,84.76-0.068,87.664,17.081
		c1.648,9.72,2.241,19.543,2.42,29.387c-21.082,0.337-42.164,0.653-63.251,0.691C22.912,47.165,19.91,48.579,17.745,50.7z
		 M269.28,264.798c-1.115,13.527-2.203,14.729-16.502,15.137c-69.098,1.985-139.594,5.896-208.855,3.399
		c-0.283-46.558-1.447-93.106-2.393-139.659c74.776-1.98,149.667-3.519,224.47-3.688c0.326,6.576,0.756,13.157,1.18,19.787
		c1.556,24.226,2.915,48.462,3.198,72.737C270.504,243.292,270.172,254.056,269.28,264.798z M89.954,73.93
		c-0.022,2.056-0.049,4.112-0.054,6.162c-0.071,17.541,27.125,17.536,27.195,0c0.005-2.181,0.022-4.362,0.038-6.538
		c27.201-0.451,54.38-1.224,81.548-2.339c0,3.41,0,6.821,0,10.236c0,17.536,27.195,17.536,27.195,0c0-3.813,0-7.626,0-11.438
		c2.143-0.109,4.291-0.169,6.44-0.283c5.026-0.272,32.449-3.285,34.261,3.416c3.095,11.46,0.218,26.45-0.587,38.122
		c-0.033,0.511-0.022,1.023-0.054,1.528c-74.956,0.174-149.993,1.719-224.922,3.699c-0.234-14.065-0.348-28.136-0.435-42.207
		C57.031,74.229,73.496,74.11,89.954,73.93z"/>
	<path style="fill:#010002;" d="M96.802,158.029c-6.103-8.05-17.65-3.367-25.999-3.367c-2.35,0-4.047,0.99-5.14,2.42
		c-0.984,1.072-1.637,2.513-1.659,4.378c-0.114,9.149-2.051,19.738,6.244,25.993c3.106,2.344,8.605,1.615,12.189,1.273
		c4.03-0.386,8.039-1.061,12.026-1.735c2.132-0.359,4.346-2.649,4.748-4.748c0.718-3.78,0.479-7.702,0.239-11.515
		C99.217,166.895,99.26,161.265,96.802,158.029z M84.499,174.896c-1.681,0.223-3.378,0.37-5.069,0.473
		c-0.587,0.033-1.18,0.049-1.773,0.049c-0.321-1.267-0.337-2.6-0.364-3.9c-0.033-1.305,0.033-2.605,0.087-3.911
		c2.828-0.419,5.651-0.843,8.099-0.702c0.179,1.169,0.288,2.502,0.386,3.835c0.098,1.305,0.114,2.611,0.152,3.922
		C85.505,174.727,85.005,174.825,84.499,174.896z"/>
	<path style="fill:#010002;" d="M96.802,199.317c-6.097-8.05-17.655-3.367-25.999-3.367c-2.35,0-4.047,0.99-5.14,2.42
		c-0.984,1.071-1.637,2.513-1.659,4.378c-0.114,9.154-2.056,19.744,6.244,25.999c3.106,2.344,8.605,1.615,12.189,1.273
		c4.03-0.386,8.039-1.061,12.026-1.735c2.132-0.359,4.346-2.649,4.748-4.748c0.718-3.78,0.479-7.702,0.239-11.514
		C99.217,208.188,99.255,202.564,96.802,199.317z M84.499,216.183c-1.681,0.223-3.378,0.37-5.069,0.473
		c-0.587,0.033-1.18,0.049-1.773,0.049c-0.321-1.267-0.337-2.6-0.364-3.9c-0.033-1.305,0.033-2.611,0.087-3.916
		c2.828-0.419,5.651-0.843,8.099-0.702c0.185,1.169,0.288,2.507,0.386,3.835c0.098,1.305,0.114,2.611,0.152,3.922
		C85.505,216.02,85.005,216.118,84.499,216.183z"/>
	<path style="fill:#010002;" d="M96.802,240.61c-6.097-8.055-17.655-3.367-25.999-3.367c-2.35,0-4.047,0.99-5.14,2.42
		c-0.984,1.071-1.637,2.513-1.659,4.378c-0.114,9.154-2.051,19.738,6.244,25.999c3.106,2.344,8.61,1.615,12.189,1.273
		c4.03-0.386,8.039-1.061,12.026-1.735c2.132-0.359,4.346-2.649,4.748-4.748c0.718-3.78,0.479-7.702,0.239-11.514
		C99.217,249.481,99.255,243.852,96.802,240.61z M84.499,257.477c-1.681,0.223-3.378,0.37-5.069,0.473
		c-0.587,0.033-1.18,0.049-1.773,0.049c-0.321-1.273-0.337-2.6-0.364-3.905c-0.033-1.305,0.033-2.605,0.087-3.911
		c2.828-0.419,5.651-0.843,8.099-0.702c0.185,1.169,0.288,2.507,0.386,3.835c0.098,1.305,0.114,2.616,0.152,3.922
		C85.505,257.314,85.005,257.412,84.499,257.477z"/>
	<path style="fill:#010002;" d="M143.752,158.029c-6.103-8.05-17.65-3.367-25.999-3.367c-2.35,0-4.047,0.99-5.14,2.42
		c-0.984,1.072-1.637,2.513-1.659,4.378c-0.114,9.149-2.051,19.738,6.244,25.993c3.106,2.344,8.61,1.615,12.189,1.273
		c4.03-0.386,8.039-1.061,12.026-1.735c2.132-0.359,4.346-2.649,4.748-4.748c0.718-3.78,0.479-7.702,0.245-11.515
		C146.167,166.895,146.205,161.265,143.752,158.029z M131.449,174.896c-1.686,0.223-3.378,0.37-5.069,0.473
		c-0.587,0.033-1.18,0.049-1.773,0.049c-0.321-1.267-0.337-2.6-0.364-3.9c-0.033-1.305,0.033-2.605,0.087-3.911
		c2.828-0.419,5.651-0.843,8.099-0.702c0.179,1.169,0.288,2.502,0.386,3.835c0.092,1.305,0.114,2.611,0.152,3.922
		C132.455,174.727,131.955,174.825,131.449,174.896z"/>
	<path style="fill:#010002;" d="M143.752,199.317c-6.097-8.05-17.655-3.367-25.999-3.367c-2.35,0-4.047,0.99-5.14,2.42
		c-0.984,1.071-1.637,2.513-1.659,4.378c-0.114,9.154-2.051,19.744,6.244,25.999c3.106,2.344,8.61,1.615,12.189,1.273
		c4.03-0.386,8.039-1.061,12.026-1.735c2.132-0.359,4.346-2.649,4.748-4.748c0.718-3.78,0.479-7.702,0.245-11.514
		C146.167,208.188,146.205,202.564,143.752,199.317z M131.449,216.183c-1.686,0.223-3.378,0.37-5.069,0.473
		c-0.587,0.033-1.18,0.049-1.773,0.049c-0.321-1.267-0.337-2.6-0.364-3.9c-0.033-1.305,0.033-2.611,0.087-3.916
		c2.828-0.419,5.651-0.843,8.099-0.702c0.185,1.169,0.288,2.507,0.386,3.835c0.092,1.305,0.114,2.611,0.152,3.922
		C132.455,216.02,131.955,216.118,131.449,216.183z"/>
	<path style="fill:#010002;" d="M143.752,240.61c-6.097-8.055-17.655-3.367-25.999-3.367c-2.35,0-4.047,0.99-5.14,2.42
		c-0.984,1.071-1.637,2.513-1.659,4.378c-0.114,9.154-2.051,19.738,6.244,25.999c3.106,2.344,8.61,1.615,12.189,1.273
		c4.03-0.386,8.039-1.061,12.026-1.735c2.132-0.359,4.346-2.649,4.748-4.748c0.718-3.78,0.479-7.702,0.245-11.514
		C146.167,249.481,146.205,243.852,143.752,240.61z M131.449,257.477c-1.686,0.223-3.378,0.37-5.069,0.473
		c-0.587,0.033-1.18,0.049-1.773,0.049c-0.321-1.273-0.337-2.6-0.364-3.905c-0.033-1.305,0.033-2.605,0.087-3.911
		c2.828-0.419,5.651-0.843,8.099-0.702c0.185,1.169,0.288,2.507,0.386,3.835c0.092,1.305,0.114,2.616,0.152,3.922
		C132.455,257.314,131.955,257.412,131.449,257.477z"/>
	<path style="fill:#010002;" d="M190.702,158.029c-6.103-8.05-17.65-3.367-25.999-3.367c-2.35,0-4.047,0.99-5.14,2.42
		c-0.984,1.072-1.637,2.513-1.659,4.378c-0.114,9.149-2.051,19.738,6.244,25.993c3.106,2.344,8.605,1.615,12.189,1.273
		c4.03-0.386,8.034-1.061,12.026-1.735c2.132-0.359,4.346-2.649,4.748-4.748c0.718-3.78,0.479-7.702,0.239-11.515
		C193.117,166.895,193.155,161.265,190.702,158.029z M178.399,174.896c-1.686,0.223-3.378,0.37-5.069,0.473
		c-0.587,0.033-1.18,0.049-1.773,0.049c-0.321-1.267-0.337-2.6-0.364-3.9c-0.033-1.305,0.033-2.605,0.087-3.911
		c2.828-0.419,5.657-0.843,8.099-0.702c0.179,1.169,0.288,2.502,0.386,3.835c0.098,1.305,0.114,2.611,0.152,3.922
		C179.405,174.727,178.905,174.825,178.399,174.896z"/>
	<path style="fill:#010002;" d="M190.702,199.317c-6.097-8.05-17.655-3.367-25.999-3.367c-2.35,0-4.047,0.99-5.14,2.42
		c-0.984,1.071-1.637,2.513-1.659,4.378c-0.114,9.154-2.051,19.744,6.244,25.999c3.106,2.344,8.605,1.615,12.189,1.273
		c4.03-0.386,8.034-1.061,12.026-1.735c2.132-0.359,4.346-2.649,4.748-4.748c0.718-3.78,0.479-7.702,0.239-11.514
		C193.117,208.188,193.155,202.564,190.702,199.317z M178.399,216.183c-1.686,0.223-3.378,0.37-5.069,0.473
		c-0.587,0.033-1.18,0.049-1.773,0.049c-0.321-1.267-0.337-2.6-0.364-3.9c-0.033-1.305,0.033-2.611,0.087-3.916
		c2.828-0.419,5.657-0.843,8.099-0.702c0.185,1.169,0.288,2.507,0.386,3.835c0.098,1.305,0.114,2.611,0.152,3.922
		C179.405,216.02,178.905,216.118,178.399,216.183z"/>
	<path style="fill:#010002;" d="M190.702,240.61c-6.097-8.055-17.655-3.367-25.999-3.367c-2.35,0-4.047,0.99-5.14,2.42
		c-0.984,1.071-1.637,2.513-1.659,4.378c-0.114,9.154-2.051,19.738,6.244,25.999c3.106,2.344,8.61,1.615,12.189,1.273
		c4.03-0.386,8.034-1.061,12.026-1.735c2.132-0.359,4.346-2.649,4.748-4.748c0.718-3.78,0.479-7.702,0.239-11.514
		C193.117,249.481,193.155,243.852,190.702,240.61z M178.399,257.477c-1.686,0.223-3.378,0.37-5.069,0.473
		c-0.587,0.033-1.18,0.049-1.773,0.049c-0.321-1.273-0.337-2.6-0.364-3.905c-0.033-1.305,0.033-2.605,0.087-3.911
		c2.828-0.419,5.657-0.843,8.099-0.702c0.185,1.169,0.288,2.507,0.386,3.835c0.098,1.305,0.114,2.616,0.152,3.922
		C179.405,257.314,178.905,257.412,178.399,257.477z"/>
	<path style="fill:#010002;" d="M237.652,158.029c-6.103-8.05-17.65-3.367-25.999-3.367c-2.35,0-4.047,0.99-5.14,2.42
		c-0.984,1.072-1.637,2.513-1.659,4.378c-0.114,9.149-2.051,19.738,6.244,25.993c3.106,2.344,8.61,1.615,12.189,1.273
		c4.03-0.386,8.039-1.061,12.031-1.735c2.132-0.359,4.346-2.649,4.748-4.748c0.718-3.78,0.479-7.702,0.239-11.515
		C240.061,166.895,240.105,161.265,237.652,158.029z M225.349,174.896c-1.686,0.223-3.378,0.37-5.069,0.473
		c-0.587,0.033-1.18,0.049-1.773,0.049c-0.321-1.267-0.332-2.6-0.364-3.9c-0.033-1.305,0.033-2.605,0.087-3.911
		c2.828-0.419,5.657-0.843,8.099-0.702c0.18,1.169,0.288,2.502,0.386,3.835c0.098,1.305,0.114,2.611,0.152,3.922
		C226.355,174.727,225.855,174.825,225.349,174.896z"/>
	<path style="fill:#010002;" d="M237.652,199.317c-6.097-8.05-17.655-3.367-25.999-3.367c-2.35,0-4.047,0.99-5.14,2.42
		c-0.984,1.071-1.637,2.513-1.659,4.378c-0.114,9.154-2.051,19.744,6.244,25.999c3.106,2.344,8.61,1.615,12.189,1.273
		c4.03-0.386,8.039-1.061,12.031-1.735c2.132-0.359,4.346-2.649,4.748-4.748c0.718-3.78,0.479-7.702,0.239-11.514
		C240.061,208.188,240.105,202.564,237.652,199.317z M225.349,216.183c-1.686,0.223-3.378,0.37-5.069,0.473
		c-0.587,0.033-1.18,0.049-1.773,0.049c-0.321-1.267-0.332-2.6-0.364-3.9c-0.033-1.305,0.033-2.611,0.087-3.916
		c2.828-0.419,5.657-0.843,8.099-0.702c0.185,1.169,0.288,2.507,0.386,3.835c0.098,1.305,0.114,2.611,0.152,3.922
		C226.355,216.02,225.855,216.118,225.349,216.183z"/>
	<path style="fill:#010002;" d="M237.652,240.61c-6.097-8.055-17.655-3.367-25.999-3.367c-2.35,0-4.047,0.99-5.14,2.42
		c-0.984,1.071-1.637,2.513-1.659,4.378c-0.114,9.154-2.051,19.738,6.244,25.999c3.106,2.344,8.61,1.615,12.189,1.273
		c4.03-0.386,8.039-1.061,12.031-1.735c2.132-0.359,4.346-2.649,4.748-4.748c0.718-3.78,0.479-7.702,0.239-11.514
		C240.061,249.481,240.105,243.852,237.652,240.61z M225.349,257.477c-1.686,0.223-3.378,0.37-5.069,0.473
		c-0.587,0.033-1.18,0.049-1.773,0.049c-0.321-1.273-0.332-2.6-0.364-3.905c-0.033-1.305,0.033-2.605,0.087-3.911
		c2.828-0.419,5.657-0.843,8.099-0.702c0.185,1.169,0.288,2.507,0.386,3.835c0.098,1.305,0.114,2.616,0.152,3.922
		C226.355,257.314,225.855,257.412,225.349,257.477z"/>
</g>
<g>
</g>
<g>
</g>
<g>
</g>
<g>
</g>
<g>
</g>
<g>
</g>
<g>
</g>
<g>
</g>
<g>
</g>
<g>
</g>
<g>
</g>
<g>
</g>
<g>
</g>
<g>
</g>
<g>
</g>
</svg>
