<svg width="212" height="313" viewBox="0 0 212 313" fill="none" xmlns="http://www.w3.org/2000/svg">
<g clip-path="url(#clip0)">
<path d="M180.375 263.335C181.136 263.079 181.545 262.254 181.289 261.492C181.033 260.731 180.208 260.322 179.447 260.578C178.686 260.835 178.277 261.66 178.533 262.421C178.789 263.182 179.614 263.592 180.375 263.335Z" fill="black" fill-opacity="0.5"/>
<path d="M172.067 269.79L177.903 267.824C178.426 267.648 178.707 267.081 178.531 266.559C178.355 266.036 177.789 265.755 177.266 265.931L171.43 267.897C170.907 268.073 170.626 268.639 170.802 269.162C170.978 269.685 171.544 269.966 172.067 269.79Z" fill="black" fill-opacity="0.5"/>
<path d="M166.274 267.636C166.994 267.993 167.866 267.699 168.223 266.979C168.58 266.26 168.287 265.387 167.567 265.03C166.848 264.673 165.975 264.966 165.618 265.686C165.261 266.406 165.555 267.279 166.274 267.636Z" fill="black" fill-opacity="0.5"/>
<path d="M138.441 271.497C137.923 269.957 136.258 269.131 134.719 269.649C133.18 270.167 132.353 271.833 132.872 273.373C133.39 274.913 135.055 275.74 136.594 275.221C138.133 274.703 138.96 273.037 138.441 271.497C138.441 271.497 138.441 271.497 138.441 271.497ZM135.957 273.328C135.464 273.494 134.93 273.229 134.764 272.735C134.598 272.242 134.862 271.709 135.356 271.542C135.849 271.376 136.383 271.641 136.549 272.134L136.549 272.134C136.715 272.628 136.45 273.161 135.957 273.328Z" fill="black" fill-opacity="0.5"/>
<path d="M143.891 266.559C142.352 267.078 141.525 268.743 142.043 270.283C142.562 271.823 144.227 272.65 145.766 272.131C147.305 271.613 148.132 269.947 147.613 268.407C147.613 268.407 147.613 268.407 147.613 268.407C147.095 266.867 145.43 266.041 143.891 266.559ZM145.72 269.045C145.887 269.538 145.622 270.072 145.129 270.238C144.636 270.404 144.102 270.139 143.936 269.646C143.77 269.153 144.034 268.619 144.528 268.453C145.021 268.286 145.555 268.551 145.72 269.045C145.72 269.044 145.721 269.045 145.72 269.045Z" fill="black" fill-opacity="0.5"/>
<path d="M199.832 272.96C198.95 270.342 193.505 254.163 192.733 251.872C191.798 249.094 188.79 247.599 186.009 248.535C184.566 249.022 135.145 265.67 130.456 267.249C127.013 268.409 125.165 272.135 126.324 275.578C127.484 279.023 131.208 280.871 134.651 279.711L153.113 273.492C154.163 276.61 157.205 285.647 157.711 287.149C158.645 289.923 161.66 291.42 164.433 290.486L196.495 279.685C199.268 278.751 200.765 275.734 199.832 272.96ZM134.013 277.818C131.616 278.626 129.024 277.338 128.217 274.941C127.41 272.543 128.697 269.95 131.093 269.143L149.556 262.923L152.476 271.599L134.013 277.818ZM157.832 281.249C157.724 280.928 151.588 262.699 151.448 262.286L186.647 250.429C188.379 249.845 190.257 250.774 190.841 252.509L196.168 268.335C194.744 268.475 190.731 267.398 186.437 270.794C184.749 272.136 182.632 272.849 180.473 272.802C180.395 272.813 176.558 272.508 173.11 275.246C170.267 277.55 167.008 277.309 166.954 277.317C164.333 277.261 161.759 278.128 159.706 279.758L157.832 281.249ZM195.857 277.792L163.796 288.593C162.066 289.175 160.186 288.242 159.603 286.511L158.509 283.262L160.948 281.323C163.774 279.079 166.967 279.325 167.023 279.317C169.568 279.373 172.158 278.553 174.266 276.879C177.365 274.476 180.162 274.837 180.433 274.799C183.084 274.858 185.688 273.969 187.752 272.301C189.353 271.005 191.5 270.232 193.729 270.28L196.845 270.348L197.939 273.597C198.521 275.327 197.588 277.209 195.857 277.792Z" fill="black" fill-opacity="0.5"/>
</g>
<path d="M36.5423 20.2802C37.2801 19.9391 37.602 19.0643 37.2611 18.3263C36.9203 17.5883 36.0458 17.2665 35.308 17.6077C34.5701 17.9488 34.2483 18.8236 34.5892 19.5616C34.93 20.2996 35.8045 20.6213 36.5423 20.2802Z" fill="black" fill-opacity="0.5"/>
<path d="M33.7027 23.2418L28.0454 25.8572C27.5447 26.0886 27.3265 26.6821 27.5577 27.1828C27.7889 27.6834 28.3821 27.9018 28.8828 27.6703L34.5402 25.055C35.0409 24.8235 35.2591 24.2301 35.0278 23.7294C34.7966 23.2287 34.2034 23.0104 33.7027 23.2418Z" fill="black" fill-opacity="0.5"/>
<path d="M22.7162 23.4283C21.9783 23.7694 21.6565 24.6442 21.9974 25.3822C22.3382 26.1203 23.2127 26.442 23.9505 26.1009C24.6884 25.7598 25.0102 24.885 24.6693 24.147C24.3285 23.409 23.454 23.0872 22.7162 23.4283Z" fill="black" fill-opacity="0.5"/>
<path d="M38.6609 5.09444C36.1297 6.26461 34.1032 8.24583 32.877 10.7279C30.193 10.0535 27.3716 10.3135 24.8404 11.4837C22.3092 12.6539 20.2827 14.6351 19.0564 17.1172C16.3724 16.4428 13.5509 16.7029 11.0197 17.873C4.94344 20.6821 2.2837 27.912 5.09078 33.9898C6.94579 38.0062 10.7312 40.529 14.839 40.9681L23.6541 60.0541C26.059 65.2613 32.1403 67.624 37.3996 65.4888L39.7417 70.5597L38.7335 71.0258C36.6561 71.9861 35.7468 74.4578 36.7065 76.5356C37.6662 78.6135 40.137 79.5225 42.2144 78.5621L46.9899 76.3544C49.0673 75.394 49.9766 72.9223 49.0169 70.8445L44.9399 62.0171L50.7202 59.3449L53.0567 64.4039L52.0486 64.87C49.9713 65.8304 49.062 68.302 50.0217 70.3798C50.9813 72.4577 53.452 73.3669 55.5293 72.4066L60.3049 70.1988C62.3823 69.2385 63.2915 66.7668 62.3319 64.689L58.2347 55.8179C62.9612 53.076 64.9164 47.1159 62.5805 42.0583L53.7653 22.9722C56.0934 19.5578 56.6264 15.0386 54.7713 11.0222C51.9644 4.94452 44.7372 2.28537 38.6609 5.09444ZM46.1524 74.541L41.3769 76.7488C40.2991 77.247 39.0174 76.7754 38.5195 75.6975C38.0217 74.6195 38.4934 73.3373 39.5711 72.839L41.4858 71.9539C41.9864 71.7224 42.2047 71.1289 41.9735 70.6282L40.5655 67.5796L44.4743 65.7725L47.204 71.6826C47.7018 72.7606 47.23 74.0429 46.1524 74.541ZM59.4674 68.3855L54.6918 70.5933C53.6141 71.0915 52.3324 70.6199 51.8345 69.5419C51.3366 68.464 51.8084 67.1817 52.8861 66.6835L54.8006 65.7984C55.3012 65.567 55.5196 64.9734 55.2883 64.4727L53.8803 61.4241L57.7893 59.617L60.519 65.5271C61.0168 66.605 60.5451 67.8873 59.4674 68.3855ZM60.7677 42.8964C62.783 47.2599 60.8735 52.4505 56.511 54.4673L56.5109 54.4673L56.5108 54.4674C39.5598 62.3038 41.5077 61.4033 37.0335 63.4718C32.671 65.4886 27.4824 63.5794 25.4671 59.216L17.0544 41.0011C18.5401 40.8864 19.9477 40.4971 21.2013 39.9175C23.7111 38.7573 25.7482 36.7879 26.9853 34.2841C29.5909 34.9388 32.4182 34.732 35.022 33.5282C37.5532 32.358 39.5797 30.3768 40.8058 27.8948C43.4899 28.5693 46.3113 28.3091 48.8425 27.1389C50.0975 26.5588 51.306 25.7381 52.3551 24.6814L60.7678 42.8963L60.7677 42.8964ZM48.0049 25.3257C45.6609 26.4093 43.0188 26.5584 40.5651 25.7458C40.0633 25.5794 39.5221 25.8343 39.3258 26.3187C38.3776 28.6569 36.5848 30.6052 34.1844 31.7149C31.8404 32.7986 29.1983 32.9477 26.7445 32.135C26.2452 31.9696 25.703 32.2203 25.5052 32.708C24.5335 35.1042 22.7077 37.0206 20.3637 38.1043C15.286 40.4517 9.24736 38.2261 6.90369 33.1517C4.55841 28.0738 6.78058 22.0333 11.8572 19.6864C14.2012 18.6027 16.8433 18.4536 19.2971 19.2663C19.7964 19.4317 20.3386 19.181 20.5364 18.6933C21.5081 16.2971 23.3339 14.3807 25.6779 13.297C28.0218 12.2134 30.664 12.0643 33.1176 12.877C33.617 13.0425 34.1593 12.7918 34.3569 12.3041C35.3286 9.90786 37.1546 7.99133 39.4984 6.90776C44.5752 4.56077 50.6133 6.7825 52.9586 11.8604C55.2962 16.9217 53.0956 22.9723 48.0049 25.3257Z" fill="black" fill-opacity="0.5"/>
<path d="M36.2043 36.0883C34.3514 36.9449 33.5403 39.1495 34.3963 41.0028L38.5609 50.0196C39.4168 51.8729 41.6206 52.6838 43.4735 51.8272C45.3264 50.9706 46.1374 48.766 45.2815 46.9127L41.1169 37.8959C40.2609 36.0426 38.0571 35.2318 36.2043 36.0883ZM43.4685 47.7508C43.8626 48.6042 43.4892 49.6194 42.636 50.0138C41.7828 50.4082 40.768 50.0349 40.3738 49.1815L36.2093 40.1647C35.8151 39.3113 36.1886 38.2961 37.0418 37.9017C37.895 37.5073 38.9098 37.8807 39.3039 38.734L43.4685 47.7508Z" fill="black" fill-opacity="0.5"/>
<path d="M25.757 40.9177C23.9041 41.7743 23.093 43.9789 23.949 45.8322L28.1136 54.849C28.9695 56.7023 31.1733 57.5132 33.0262 56.6566C34.8791 55.8 35.6901 53.5954 34.8342 51.7421L30.6696 42.7253C29.8136 40.872 27.6098 40.0612 25.757 40.9177ZM33.0212 52.5802C33.4153 53.4336 33.0419 54.4488 32.1887 54.8432C31.3355 55.2376 30.3207 54.8643 29.9265 54.0109L25.762 44.9941C25.3678 44.1407 25.7413 43.1255 26.5945 42.7311C27.4477 42.3367 28.4625 42.7101 28.8566 43.5634L33.0212 52.5802Z" fill="black" fill-opacity="0.5"/>
<path d="M46.6516 31.259C44.7987 32.1155 43.9877 34.3202 44.8436 36.1734L49.0082 45.1902C49.8641 47.0435 52.068 47.8544 53.9208 46.9978C55.7737 46.1412 56.5847 43.9366 55.7288 42.0833L51.5642 33.0665C50.7083 31.2133 48.5045 30.4024 46.6516 31.259ZM53.9158 42.9215C54.3099 43.7748 53.9365 44.79 53.0833 45.1844C52.2301 45.5789 51.2153 45.2055 50.8212 44.3521L46.6566 35.3353C46.2625 34.4819 46.6359 33.4668 47.4891 33.0723C48.3423 32.6779 49.3571 33.0513 49.7513 33.9047L53.9158 42.9215Z" fill="black" fill-opacity="0.5"/>
<g clip-path="url(#clip1)">
<path d="M91.6448 214.453C89.7737 214.619 87.8896 214.344 86.1435 213.651C84.3974 212.958 82.8377 211.866 81.5892 210.462C81.4777 210.332 81.3365 210.23 81.1776 210.167C81.0187 210.103 80.8467 210.078 80.6763 210.095L74.8286 210.663L75.0359 212.784L80.3442 212.264C81.8131 213.79 83.6036 214.968 85.5854 215.714C87.5672 216.46 89.6903 216.754 91.8001 216.575C92.5555 216.518 93.3056 216.405 94.0441 216.237L93.5686 214.16C92.9356 214.306 92.2925 214.404 91.6448 214.453Z" fill="black" fill-opacity="0.5"/>
<path d="M90.2339 195.323C88.4271 195.411 86.681 196.003 85.1936 197.033C83.7061 198.063 82.5367 199.489 81.8179 201.15L65.8011 201.953L58.379 187.733C59.4505 186.273 60.0897 184.542 60.2235 182.736C60.3572 180.93 59.9801 179.123 59.1354 177.522C58.0693 175.299 56.2339 173.539 53.9694 172.567C52.9111 172.091 51.7609 171.855 50.6009 171.876C49.4408 171.896 48.2996 172.172 47.2586 172.685C46.2177 173.197 45.3027 173.933 44.5789 174.841C43.8552 175.748 43.3407 176.804 43.072 177.933C42.4619 180.32 42.7382 182.848 43.8496 185.047C44.6032 186.695 45.8059 188.098 47.3198 189.093C48.8337 190.089 50.5976 190.638 52.409 190.677L57.8079 202.346L45.9746 202.942C45.4167 202.967 44.8695 203.105 44.3657 203.346C43.8618 203.587 43.4115 203.927 43.0413 204.346C42.6711 204.764 42.3887 205.253 42.2108 205.782C42.0328 206.312 41.9629 206.872 42.0052 207.429C42.047 207.985 42.1994 208.527 42.4534 209.023C42.7074 209.518 43.0579 209.959 43.4843 210.317C43.9108 210.676 44.4045 210.946 44.9366 211.111C45.4687 211.276 46.0284 211.333 46.5828 211.278L61.2829 209.848L67.4907 223.259C67.72 223.774 68.0508 224.237 68.4633 224.621C68.8758 225.005 69.3615 225.301 69.8913 225.493C70.4211 225.684 70.9841 225.767 71.5465 225.735C72.109 225.704 72.6593 225.559 73.1645 225.31C73.6698 225.061 74.1195 224.712 74.4869 224.285C74.8542 223.858 75.1315 223.361 75.3023 222.824C75.473 222.287 75.5336 221.721 75.4805 221.16C75.4274 220.599 75.2616 220.054 74.9931 219.559L69.5017 209.048L82.3026 207.797C83.2529 209.341 84.6187 210.585 86.2435 211.387C87.8682 212.189 89.6861 212.517 91.4885 212.333C96.7551 211.943 100.765 207.814 100.425 203.126C100.085 198.438 95.5088 194.938 90.2339 195.323ZM46.3734 209.161C45.8263 209.201 45.2853 209.025 44.8659 208.671C44.4465 208.317 44.1819 207.814 44.1286 207.268C44.1079 206.994 44.1422 206.72 44.2295 206.46C44.3168 206.2 44.4554 205.961 44.637 205.756C44.8186 205.551 45.0395 205.384 45.2867 205.266C45.5338 205.148 45.8021 205.08 46.0758 205.068L58.7736 204.429L60.332 207.794L46.3734 209.161ZM73.2366 222.135C73.1082 222.527 72.8648 222.872 72.538 223.124C72.2113 223.376 71.8162 223.524 71.4043 223.548C70.9924 223.573 70.5827 223.472 70.2285 223.261C69.8744 223.049 69.5921 222.735 69.4184 222.361L54.0319 189.119C53.938 188.916 53.7829 188.748 53.5884 188.639C53.3939 188.529 53.1699 188.483 52.9481 188.508C51.4441 188.596 49.9492 188.221 48.6643 187.434C47.3794 186.647 46.366 185.485 45.7603 184.105C44.8772 182.368 44.6538 180.369 45.1316 178.479C45.3214 177.642 45.6957 176.859 46.2271 176.186C46.7586 175.513 47.4337 174.967 48.2031 174.589C48.9725 174.211 49.8168 174.009 50.6741 173.999C51.5314 173.989 52.38 174.171 53.1579 174.532C54.9463 175.306 56.3937 176.702 57.232 178.461C57.9546 179.783 58.2556 181.295 58.0946 182.793C57.9335 184.291 57.3182 185.704 56.3311 186.842C56.176 187.003 56.0754 187.209 56.0435 187.43C56.0116 187.651 56.0501 187.877 56.1534 188.075L73.1042 220.546C73.232 220.788 73.3096 221.054 73.3324 221.327C73.3551 221.6 73.3225 221.875 73.2366 222.135ZM91.3314 210.201C89.8349 210.377 88.3205 210.09 86.9915 209.38C85.6626 208.67 84.5828 207.569 83.8971 206.227C83.806 206.023 83.6532 205.853 83.4603 205.741C83.2673 205.629 83.044 205.58 82.8218 205.601L68.4407 207.008L66.889 204.032L82.6515 203.238C82.8742 203.226 83.0878 203.145 83.2621 203.006C83.4364 202.867 83.5627 202.677 83.623 202.462C84.1095 201.037 85.0178 199.794 86.2274 198.897C87.4369 198.001 88.8905 197.494 90.395 197.443C94.494 197.143 98.0446 199.76 98.3044 203.272C98.5641 206.783 95.4295 209.9 91.3314 210.201Z" fill="black" fill-opacity="0.5"/>
<path d="M69.6851 154.263L69.5435 152.137C66.4638 152.338 63.5398 153.563 61.2356 155.617C58.9314 157.671 57.3793 160.436 56.8257 163.473L58.9214 163.853C59.3906 161.283 60.7046 158.944 62.655 157.206C64.6053 155.469 67.08 154.433 69.6861 154.264L69.6851 154.263Z" fill="black" fill-opacity="0.5"/>
<path d="M58.9769 168.307C58.8209 167.547 58.7398 166.774 58.7348 165.998L56.6058 166.006C56.6111 166.923 56.7066 167.837 56.891 168.736L58.9769 168.307Z" fill="black" fill-opacity="0.5"/>
<path d="M80.3366 200.099L90.4996 188.444C92.7455 189.483 95.3061 189.613 97.6456 188.807C99.985 188 101.922 186.32 103.051 184.117C104.181 181.915 104.415 179.36 103.705 176.989C102.995 174.618 101.395 172.613 99.2414 171.394C97.3762 170.317 95.1997 169.909 93.0711 170.236C92.951 168.679 92.452 167.175 91.6176 165.855C90.7831 164.535 89.6386 163.44 88.2838 162.664C86.929 161.888 85.4051 161.456 83.8449 161.404C82.2846 161.353 80.7355 161.684 79.3325 162.368C78.5369 160.366 77.0827 158.696 75.2099 157.632C73.0699 156.406 70.54 156.053 68.1461 156.645C65.7523 157.237 63.6786 158.729 62.3564 160.812C61.0341 162.894 60.5649 165.406 61.0464 167.825C61.5278 170.245 62.9229 172.386 64.9415 173.803L60.0393 188.475L62.0583 189.15L63.0265 186.257L80.7358 196.399L78.7367 198.691L80.3366 200.099ZM78.6265 192.736L82.4998 187.762L80.8199 186.451L76.7595 191.666L73.8637 190.008L79.684 179.837L77.8354 178.778L72.0151 188.949L69.1193 187.291L71.5586 181.147L69.5782 180.362L67.2523 186.222L63.715 184.196L67.2265 173.685C67.3034 173.451 67.2974 173.199 67.2095 172.969C67.1216 172.74 66.9571 172.548 66.744 172.426C65.0281 171.444 63.7726 169.819 63.2539 167.91C62.7351 166.002 62.9955 163.965 63.9779 162.248C64.9602 160.532 66.5839 159.276 68.4919 158.757C70.3999 158.238 72.4358 158.499 74.1517 159.481C75.0338 159.983 75.8029 160.662 76.411 161.475C77.0191 162.288 77.4531 163.218 77.6858 164.206C77.7263 164.374 77.8069 164.529 77.9205 164.658C78.0342 164.788 78.1776 164.888 78.3384 164.95C78.4992 165.012 78.6726 165.034 78.8437 165.014C79.0148 164.994 79.1786 164.933 79.3209 164.836C80.4749 164.044 81.8287 163.594 83.2267 163.537C84.6248 163.481 86.0105 163.819 87.2248 164.515C88.4391 165.21 89.4327 166.234 90.0917 167.469C90.7507 168.704 91.0483 170.099 90.9503 171.496C90.9387 171.667 90.9689 171.84 91.0384 171.997C91.108 172.155 91.2147 172.294 91.3495 172.401C91.4842 172.508 91.643 172.581 91.8122 172.614C91.9814 172.646 92.156 172.637 92.3209 172.587C93.2907 172.288 94.3117 172.191 95.3204 172.304C96.3291 172.417 97.3036 172.737 98.1831 173.244C99.8991 174.226 101.155 175.851 101.673 177.759C102.192 179.668 101.932 181.705 100.949 183.421C99.967 185.138 98.3432 186.394 96.4352 186.913C94.5273 187.432 92.4914 187.171 90.7754 186.189C90.5624 186.067 90.3137 186.022 90.0715 186.062C89.8293 186.102 89.6085 186.225 89.4463 186.41L82.1638 194.761L78.6265 192.736Z" fill="black" fill-opacity="0.5"/>
</g>
<g clip-path="url(#clip2)">
<path d="M142.362 91.4769C142.689 90.835 142.433 90.0513 141.791 89.7247C141.15 89.3982 140.366 89.6533 140.039 90.2953C138.488 93.3448 139.722 99.2431 139.867 99.9065C139.955 100.303 140.215 100.617 140.55 100.788C140.809 100.92 141.113 100.966 141.42 100.899C142.123 100.744 142.566 100.049 142.413 99.346C141.94 97.1952 141.507 93.1575 142.362 91.4769Z" fill="black" fill-opacity="0.5"/>
<path d="M167.34 102.722C166.698 102.395 165.915 102.651 165.588 103.293C164.736 104.968 161.216 106.999 159.197 107.886C158.539 108.175 158.239 108.943 158.528 109.603C158.653 109.889 158.87 110.108 159.13 110.24C159.466 110.411 159.872 110.435 160.244 110.273C160.866 110 166.359 107.524 167.911 104.474C168.237 103.832 167.982 103.049 167.34 102.722Z" fill="black" fill-opacity="0.5"/>
<path d="M154.566 96.2234C153.924 95.8968 153.14 96.152 152.814 96.7939L149.269 103.762C148.942 104.404 149.198 105.187 149.84 105.514C150.482 105.84 151.265 105.585 151.592 104.943L155.136 97.9755C155.463 97.3336 155.208 96.5499 154.566 96.2234Z" fill="black" fill-opacity="0.5"/>
<path d="M176.793 84.1412C176.089 83.7832 175.306 83.5021 174.47 83.2555C173.429 78.9727 170.609 75.1479 166.382 72.9973C162.154 70.8467 157.402 70.8191 153.328 72.4995C152.636 71.9691 151.948 71.5018 151.244 71.1438C144.2 67.5605 135.554 70.3758 131.971 77.4196C129.516 82.2462 130.005 88.0187 133.175 92.3621L124.224 109.901C123.579 111.167 123.465 112.608 123.904 113.959C124.343 115.312 125.282 116.41 126.549 117.055L154.23 131.137C156.843 132.466 160.049 131.422 161.378 128.809L170.318 111.236C175.682 111.227 180.621 108.225 183.069 103.414C186.652 96.3703 183.837 87.7246 176.793 84.1412ZM159.056 127.628C158.378 128.959 156.743 129.492 155.411 128.814L127.73 114.732C127.085 114.404 126.606 113.844 126.382 113.154C126.158 112.465 126.215 111.73 126.545 111.085L128.866 106.539L161.372 123.075L159.056 127.628ZM169.634 108.613C169.56 108.607 169.487 108.607 169.415 108.614C169.222 108.63 169.041 108.69 168.881 108.782C168.721 108.873 168.579 109.001 168.467 109.158C168.424 109.218 168.388 109.281 168.355 109.347L162.553 120.753L130.05 104.217L135.859 92.8354C135.893 92.7725 135.922 92.7061 135.945 92.6391C136.009 92.4506 136.028 92.2544 136.006 92.0647C135.985 91.887 135.928 91.7125 135.832 91.5525C135.793 91.4868 135.748 91.4238 135.698 91.3654C132.734 87.7595 132.181 82.753 134.294 78.6012C137.226 72.8377 144.299 70.5345 150.062 73.4665C150.288 73.5811 150.512 73.7292 150.736 73.8663C148.522 75.3106 146.639 77.323 145.356 79.8435C145.03 80.4854 145.285 81.2691 145.927 81.5957C146.569 81.9222 147.353 81.667 147.679 81.0251C150.937 74.622 158.797 72.0625 165.2 75.3199C171.603 78.5773 174.163 86.4377 170.905 92.8408C170.579 93.4827 170.834 94.2664 171.476 94.593C172.118 94.9195 172.901 94.6643 173.228 94.0224C174.51 91.5019 175.028 88.795 174.892 86.1551C175.134 86.2554 175.386 86.3492 175.611 86.4638C181.375 89.3958 183.678 96.4692 180.746 102.233C178.641 106.37 174.282 108.872 169.634 108.613Z" fill="black" fill-opacity="0.5"/>
</g>
<defs>
<clipPath id="clip0">
<rect width="68.1666" height="68.1826" fill="white" transform="matrix(0.895724 0.444611 -0.444334 0.895861 150.942 221.61)"/>
</clipPath>
<clipPath id="clip1">
<rect width="68.1679" height="68.1813" fill="white" transform="matrix(0.867773 0.496961 -0.496671 0.867939 59.765 143.876)"/>
</clipPath>
<clipPath id="clip2">
<rect width="57.3295" height="57.3295" fill="white" transform="translate(140.833 60) rotate(26.9636)"/>
</clipPath>
</defs>
</svg>
