<svg height='100px' width='100px'  fill="#FFFFFF" xmlns="http://www.w3.org/2000/svg" xmlns:xlink="http://www.w3.org/1999/xlink" version="1.1" x="0px" y="0px" viewBox="0 0 128 128" style="enable-background:new 0 0 128 128;" xml:space="preserve"><g><path d="M78.8864136,61.3391113c-0.1550293-0.8272705-0.8612671-1.4401245-1.6952515-1.553833l-30.2885132-4.1288452   c-0.8088989-0.1102295-1.4696045-0.7011108-1.6691895-1.4927368L42.6708984,44l-1.5435181-14.3877563   c-0.1567383-1.4608765-0.8441162-2.8134766-1.9317017-3.8013916l-2.6591187-2.4152222   c-0.2788696-0.6309814-0.5834351-1.2518921-0.8856812-1.8594971c-0.8583984-1.7246094-1.6689453-3.3540039-1.6689453-4.902832   c0-3.144043,2.6499023-5.9077148,2.6767578-5.9350586c0.2802734-0.2880859,0.3613281-0.7167969,0.2045898-1.0869141   C36.7070312,9.2412109,36.3447266,9,35.9428711,9H21.4326172c-0.269043,0-0.5263672,0.1083984-0.7148438,0.300293   c-0.1323242,0.1357422-3.2460938,3.3623047-3.2460938,7.3330078c0,2.019043,0.9550781,3.9379883,1.878418,5.7939453   c0.8896484,1.7880859,1.7299805,3.4770508,1.7299805,5.1508789c0,4.3652344-2.465332,7.796875-2.4902344,7.8310547   c-0.2216797,0.3041992-0.2543945,0.7080078-0.0834961,1.043457C18.6767578,36.7880859,19.0205078,37,19.3969727,37h6.699707   l0.2320557,1.4938965c0.1331787,0.8573608,0.4506836,1.6755981,0.9306641,2.3983765L29.3231812,44h0.0421143l1.9492188,18.0679321   c0.3880005,3.5968018,2.6884155,6.7035522,6.0154419,8.1241455l22.7608643,9.7185059   c0.675354,0.2883911,1.1403809,0.9195557,1.2053833,1.651001c0.2293091,2.5803223,1.1365967,8.8786011,4.6557617,13.2113647   c0.3372192,0.4151611,0.5212402,0.9281006,0.4758301,1.4609985c-0.2901001,3.4064331-1.3970947,16.4035645-1.8396606,21.6002197   C64.4887085,119.0014648,65.409668,120,66.5812378,120H85V67.1473389   C81.9191895,66.7269287,79.4545898,64.3703613,78.8864136,61.3391113z M27.2449341,31.3618164   c-0.0725098-0.467041,0.1380615-0.7952271,0.2700195-0.9492798C27.6469727,30.2584839,27.9389648,30,28.4116211,30   c0.5961914,0,1.0999756,0.4462891,1.171936,1.038147l0.380249,3.1269531   c0.1845093,1.5181885,1.4769897,2.6630859,3.0063477,2.6630859c2.0580444,0,4.5078125-1.7143555,4.5507202-9.8366699   l0.3300781,0.2998047c0.7258911,0.6593018,1.1832275,1.5593262,1.2878418,2.5343018L40.4448853,42H30.395874l-1.4703979-2.2141724   c-0.317749-0.4784546-0.5322876-1.031311-0.6204224-1.598877L27.2449341,31.3618164z M21.1640625,35   c0.8374023-1.5991211,1.9160156-4.2709961,1.9160156-7.421875c0-2.144043-0.9858398-4.1254883-1.9394531-6.0415039   c-0.8583984-1.7250977-1.6689453-3.3544922-1.6689453-4.9033203c0-2.5405273,1.7299805-4.8325195,2.4086914-5.6333008h12.0097656   c-0.8950195,1.3452148-1.9082031,3.3681641-1.9082031,5.6333008c0,2.019043,0.9550781,3.9379883,1.878418,5.7939453   c0.4941406,0.9931641,1.0048828,2.0200195,1.3369141,3.0112305c0.0874023,0.262207,0.1640625,0.5253906,0.2260742,0.7895508   c0.010437,0.0445557,0.0358276,0.0802002,0.0516968,0.1218262l0.0463867,0.4246826   c0,7.7946167-2.1751099,8.0536499-2.5512695,8.0536499c-0.5200195,0-0.9581909-0.3881836-1.0209961-0.9044189l-0.380188-3.1270142   C31.3748779,29.2003784,30.0197144,28,28.4116211,28h-0.000061c-1.9511719,0-3.4423828,1.7407227-3.1429443,3.6688232   L25.7860107,35H21.1640625z M80.0991211,75.078125c-2.2773438,0-4.1645508-1.7036133-4.4541016-3.902832   c-2.5649414,0.1074219-4.6870117-1.9467773-4.6870117-4.4882812c0-2.4770508,2.015625-4.4926758,4.4926758-4.4926758   c0.5522461,0,1,0.4477539,1,1s-0.4477539,1-1,1c-1.3745117,0-2.4926758,1.1181641-2.4926758,2.4926758   c0,1.6582031,1.6000977,2.9853516,3.362793,2.3251953c0.3383789-0.1254883,0.7172852-0.0600586,0.9931641,0.1708984   c0.2763672,0.2319336,0.40625,0.5942383,0.3398438,0.9487305c-0.0273438,0.1474609-0.0473633,0.2978516-0.0473633,0.4536133   c0,1.3745117,1.1181641,2.4926758,2.4926758,2.4926758c0.5522461,0,1,0.4477539,1,1S80.6513672,75.078125,80.0991211,75.078125z"></path><path d="M98.425354,60h-3.446106c-0.934021,0-1.7439575,0.6471558-1.944519,1.5593872   C92.3938599,64.4735718,89.9902344,66.7211304,87,67.1433716V120h20.5828247l-2.4290161-23.8857422   c-0.0703125-0.6879883,0.1083984-1.3911133,0.503418-1.9799805c5.1201172-7.6445312,4.7167969-13.7514648,4.7124023-13.8125   c-0.0424805-0.5493164,0.3676758-1.03125,0.9169922-1.074707c0.5610352-0.0458984,1.0307617,0.3637695,1.0761719,0.9125977   c0.0229492,0.2744141,0.4936523,6.8198242-5.0439453,15.0878906c-0.1362305,0.203125-0.1987305,0.4389648-0.1757812,0.6645508   L109.5926514,120h4.8533325c1.0636597,0,1.9412231-0.8325195,1.9972534-1.8946533l1.9544067-37.0519409   C119.0012817,69.6097412,109.8849487,59.999939,98.425354,60z M93,115c-1.1045532,0-2-0.8954468-2-2c0-1.1046143,0.8954468-2,2-2   s2,0.8953857,2,2C95,114.1045532,94.1045532,115,93,115z M93,104c-1.1045532,0-2-0.8954468-2-2c0-1.1046143,0.8954468-2,2-2   s2,0.8953857,2,2C95,103.1045532,94.1045532,104,93,104z M93,94c-1.1045532,0-2-0.8954468-2-2c0-1.1046143,0.8954468-2,2-2   s2,0.8953857,2,2C95,93.1045532,94.1045532,94,93,94z M93,84c-1.1045532,0-2-0.8954468-2-2c0-1.1046143,0.8954468-2,2-2   s2,0.8953857,2,2C95,83.1045532,94.1045532,84,93,84z M95.7368164,71.175293   c-0.2895508,2.1992188-2.1767578,3.902832-4.4541016,3.902832c-0.5522461,0-1-0.4477539-1-1s0.4477539-1,1-1   c1.3745117,0,2.4926758-1.1181641,2.4926758-2.4926758c0-0.15625-0.0200195-0.3076172-0.0473633-0.4555664   c-0.0654297-0.3544922,0.0649414-0.7163086,0.3413086-0.9477539c0.2758789-0.2319336,0.6542969-0.2958984,0.9921875-0.1699219   c1.7631836,0.6591797,3.3623047-0.6669922,3.362793-2.3251953c0-1.0610352-0.6728516-2.0078125-1.6748047-2.3554688   c-0.5214844-0.1816406-0.7978516-0.7514648-0.6166992-1.2729492s0.7529297-0.7978516,1.2729492-0.6166992   c1.8056641,0.6274414,3.0185547,2.3334961,3.0185547,4.2451172C100.4243164,69.2290039,98.2915039,71.2949219,95.7368164,71.175293   z"></path><path d="M98.3344116,21.9004517c0.3328857,0.2232056,0.6551514,0.4628296,0.9719238,0.7109985   c1.6157837,1.2658691,3.0252686,2.852356,4.2297363,4.7730103c0.125061,0.1994629,0.2439575,0.4089355,0.3646851,0.6155396   h2.8852539v-0.0140381c0.0796509-0.0030518,0.15802,0.0009766,0.2380981-0.0046387   c4.1318359-0.2894287,7.2467041-3.8735962,6.9572144-8.0054321c-0.2687378-3.8364868-3.3792725-6.791626-7.1300049-6.9633789   C106.1611328,9.5830688,103.1327515,7,99.5,7c-4.1421509,0-7.5,3.3578491-7.5,7.5   c0,0.0056763,0.0008545,0.0110474,0.0008545,0.0167236L92,14.5166626v4.7992554   c0.8224487,0.1654053,1.6077271,0.385376,2.3676758,0.6427612C95.7982178,20.4432373,97.12146,21.0871582,98.3344116,21.9004517z"></path><path d="M100.7363281,54.2929077c5.5083008,2.9071655,8.8745117,1.3770752,8.8745117-0.8415527   c0,0,0.2280273-1.5447998-2.9071655-3.0601807c0,0,1.3067017-2.0025635-0.6120605-3.8251953   c1.6722412,0.2027588,2.0948486-2.0158081,0.3825684-6.3498535c-1.059021-2.5339966-1.9812012-7.2579346-4.4008789-11.3881836   c-0.0405273-0.0681152-0.0797119-0.1387329-0.1207886-0.2059326c-0.0959473-0.1596069-0.1967773-0.3171997-0.2974243-0.4747314   c-0.0328369-0.050415-0.0675659-0.0973511-0.100708-0.1472778C99.1985474,24.4487305,96.0633545,22.272644,92,21.3660278   c-0.0302734-0.0067749-0.0598755-0.0144043-0.09021-0.0209961C90.7733154,21.1220093,89.5375977,21,88.189209,21H72.4039917   c0,0-2.2927856-0.0881958-0.7054443,3.5274048s-2.8687134,4.4974365-2.8687134,4.4974365s-5.1635132,1.2047729-5.8616333,5.7747192   c-0.522644,3.7874146,0.4790039,6.385376,3.439209,7.2767334c-2.1304932,3.2607422,0.7937012,4.5856323,0.7937012,4.5856323   s-5.5557251,4.1447144-3.7037964,6.878479c1.8518677,2.7337036,6.0644531,0.8297119,7.9366455-1.5873413   c0.0540161-0.0697021,0.09552-0.1426392,0.1453857-0.2134399C74.861084,56.1386108,80.0897827,59,86,59   c5.2077637,0,9.8847656-2.2248535,13.1714478-5.7600098C99.5917358,53.6022949,100.0995483,53.9568481,100.7363281,54.2929077z    M86,57c-5.666748,0-10.6425781-2.9696045-13.4859619-7.4259033c0.5105591-2.5125122-0.5547485-5.1604004-1.2315063-6.508667   c-0.2509155-0.499939-0.0686035-1.098999,0.4161987-1.3780518c1.5787354-0.9088135,4.6786499-3.1384277,5.0565796-6.7971191   c0.0522461-0.5057373,0.4597168-0.9115601,0.9676514-0.9343262c1.3942871-0.062561,3.9468994-0.5186768,4.7709351-2.9413452   c0.2319946-0.6820679,1.0621338-0.9512939,1.628418-0.5059814c1.8672485,1.4683228,5.7589111,3.8949585,12.3297729,5.2702637   c0,0,2.776001,0.8019409,3.5640869,3.1259766c0.1519165,0.447998-0.0545654,0.9398193-0.4571533,1.1882324   c-1.2412109,0.7660522-3.630249,2.9072266-1.0413208,7.0848999c0,0-1.6763306,2.1651001-0.6013794,4.461731   C94.9841919,54.9200439,90.7355957,57,86,57z"></path><circle cx="27.5" cy="22.5" r="3.5"></circle><path d="M44.8307495,82.5350952l-29-13.2424927C14.5062256,68.6878052,13,69.6558228,13,71.1119385V118   c0,1.1045532,0.8954468,2,2,2h11v-10c0-1.1046143,0.8954468-2,2-2h3c1.1045532,0,2,0.8953857,2,2v10h11   c1.1045532,0,2-0.8954468,2-2V84.3543701C46,83.5713501,45.5430298,82.8603516,44.8307495,82.5350952z M23,102   c0,1.1045532-0.8954468,2-2,2h-3c-1.1045532,0-2-0.8954468-2-2v-3c0-1.1046143,0.8954468-2,2-2h3c1.1045532,0,2,0.8953857,2,2V102z    M23,91c0,1.1045532-0.8954468,2-2,2h-3c-1.1045532,0-2-0.8954468-2-2v-3c0-1.1046143,0.8954468-2,2-2h3   c1.1045532,0,2,0.8953857,2,2V91z M33,102c0,1.1045532-0.8954468,2-2,2h-3c-1.1045532,0-2-0.8954468-2-2v-3   c0-1.1046143,0.8954468-2,2-2h3c1.1045532,0,2,0.8953857,2,2V102z M33,91c0,1.1045532-0.8954468,2-2,2h-3   c-1.1045532,0-2-0.8954468-2-2v-3c0-1.1046143,0.8954468-2,2-2h3c1.1045532,0,2,0.8953857,2,2V91z M43,102   c0,1.1045532-0.8954468,2-2,2h-3c-1.1045532,0-2-0.8954468-2-2v-3c0-1.1046143,0.8954468-2,2-2h3c1.1045532,0,2,0.8953857,2,2V102z    M43,91c0,1.1045532-0.8954468,2-2,2h-3c-1.1045532,0-2-0.8954468-2-2v-3c0-1.1046143,0.8954468-2,2-2h3   c1.1045532,0,2,0.8953857,2,2V91z"></path></g></svg>