<svg height='100px' width='100px'  fill="#FFFFFF" xmlns="http://www.w3.org/2000/svg" xmlns:xlink="http://www.w3.org/1999/xlink" version="1.1" x="0px" y="0px" viewBox="0 0 128 128" style="enable-background:new 0 0 128 128;" xml:space="preserve"><g><path d="M105.4891968,45.6577759c-1.0188599-0.4638672-1.961853-0.8330688-2.7592163-1.1102295   c-1.5545654-0.5403442-3.2786255-0.1320801-4.4423828,1.0316772l-4.3612671,4.3612671   c1.3989258,0.5594482,3.0836792,1.3381958,4.8969727,2.3831787L105.4891968,45.6577759z"></path><path d="M119.324585,60.9668579c-0.2490234-0.9421387-0.5674438-1.8188477-0.9151611-2.6653442l-6.6556396,6.6556396   c0.8208008,1.3826294,1.5757446,2.8764038,2.2451782,4.4900513l4.2354126-4.2811279   C119.3242188,64.0644531,119.7205811,62.4650269,119.324585,60.9668579z"></path><path d="M92.3867798,51.4800415L78.8668823,65h-7.5018921l0.0632324,0.0507812   c1.5625,1.2553711,2.2807617,3.2543945,1.8735352,5.2167969L69.078125,90.6611328   c-0.1958008,0.9462891-0.8022461,1.7392578-1.6640625,2.1757812c-0.8623047,0.4360352-1.8603516,0.4555664-2.7382812,0.0537109   c-2.9472656-1.3486328-4.9589844-4.1918945-5.2509766-7.4199219l-0.8989258-9.953125   c-0.0415039-0.4584961-0.3242188-0.8256836-0.7568359-0.9824219c-0.4311523-0.15625-0.8842773-0.0561523-1.2104492,0.2695312   L45.8355103,85.5275269l-6.7043457,6.7041016l-0.6414185,0.6414185c-0.1931152,0.1931763-0.3979492,0.3720703-0.6095581,0.541687   l-1.366272,1.366272c-1.5419922,1.5419922-1.5419922,4.0419922,0,5.5839233c1.5419312,1.5419922,4.0419312,1.5419922,5.5839233,0   l3.1394653-3.1394653l0.0008545,0.0006714l1.1572876-1.1572876c0.390625-0.390625,1.0234375-0.390625,1.4140625,0   s0.390625,1.0234375,0,1.4140625l-1.015564,1.015564l0.0100708,0.0082397l-2.7597046,2.7597046   c-1.5419922,1.5419922-1.5419922,4.0419922,0,5.5839233c1.5383301,1.5383911,4.02948,1.5407104,5.5722656,0.0095215   l3.3297729-3.3297729l0.8162842-0.8162842c0.0018921-0.0018921,0.0044556-0.0023804,0.0063477-0.0042114   c0.3910522-0.3850098,1.0189819-0.3845215,1.4077148,0.0042114c0.390625,0.390625,0.390625,1.0234375,0,1.4140625   l-0.6746216,0.6746216l0.0318604,0.026001l-1.0372925,1.0372925c-1.5419922,1.5419922-1.5419922,4.0419922,0,5.5839233   c1.5324097,1.5324707,4.0090942,1.5385742,5.5532837,0.0250244l2.9888306-2.9888306l2.0162964-2.0162964   c0.0049438-0.0049438,0.0117188-0.0062866,0.0167236-0.0111084c0.3916016-0.3759155,1.0116577-0.3745728,1.3973389,0.0111084   c0.390625,0.390625,0.390625,1.0234375,0,1.4140625l-1.1524048,1.1524048l0.0250244,0.0060425l-1.1689453,1.1689453   c-0.8416748,0.8416748-0.8416748,2.2063599,0,3.0480347c2.1500854,2.1500854,5.5684204,2.21521,7.8237915,0.2418823   l-0.5161133-0.5161133c-0.8421631-0.8421631-1.3456421-1.8912964-1.5314331-2.9848633   c-0.2909546-1.7127075,0.2126465-3.5358887,1.5319214-4.8554688c1.2299805-1.2294312,2.8964233-1.734375,4.5043335-1.5650024   c-0.1073608-0.3831787-0.1757812-0.7714844-0.1992798-1.1660767c-0.0912476-1.5285645,0.4240723-3.0866089,1.5894775-4.2523193   c1.1832886-1.1830444,2.7709961-1.6942749,4.3219604-1.5820312c-0.6444092-1.9311523-0.2213745-4.1434326,1.3132935-5.6777344   c1.0473633-1.0473633,2.4394531-1.6240234,3.9204102-1.6240234c0.3129883,0,0.6187744,0.0394287,0.9213867,0.0899658   c-0.0648193-0.3412476-0.1020508-0.6900635-0.1020508-1.0450439c0-1.480957,0.5766602-2.8730469,1.6240234-3.9204102   c2.1621094-2.1606445,5.6791992-2.1616211,7.840332,0l1.5025635,1.5027466l14.7508545-14.9101562   C107.6286621,58.468689,97.3397217,53.3018799,92.3867798,51.4800415z"></path><path d="M105.4629517,57.1854858l7.046875-7.046875c-1.6856689-1.477356-3.4604492-2.6390381-5.1331787-3.5401611   l-6.7997437,6.7997437C102.1794434,54.4402466,103.8389893,55.687561,105.4629517,57.1854858z"></path><path d="M110.6585083,63.2243042l6.8471069-6.8471069c-0.9989014-1.8676147-2.2114258-3.4848022-3.5427856-4.8634644   l-7.0732422,7.0732422C108.2095947,59.9507446,109.4831543,61.4890137,110.6585083,63.2243042z"></path><path d="M77.4500122,107.1017456l-0.3534546-0.3536987l-0.1893311-0.1894531   c-0.690918-0.6904297-1.5986328-1.0361328-2.5063477-1.0361328s-1.8149414,0.3452148-2.5058594,1.0361328   C70.9638672,107.4900513,70.6758423,108.8118286,71.000061,110c0.1567383,0.5744629,0.4447632,1.1204224,0.8949585,1.5708008   l0.5429688,0.5429688l0.2529297,0.2529297c1.3803711,1.3813477,3.6293945,1.3813477,5.0117188,0   c0.6694336-0.6694336,1.0380859-1.5595703,1.0380859-2.5058594c0-0.9467773-0.3686523-1.8369141-1.0380859-2.5063477   L77.4500122,107.1017456z"></path><path d="M83.5009155,100.2745972l-0.6991577-0.6994019c-0.6914062-0.690918-1.5986328-1.0361328-2.5063477-1.0361328   s-1.8149414,0.3452148-2.5058594,1.0361328c-1.3813477,1.3818359-1.3813477,3.6303711,0,5.012207l0.7260742,0.7263184   l1.0224609,1.0227051c1.3818359,1.3818359,3.6303711,1.3818359,5.012207,0   c0.6694336-0.6694336,1.0380859-1.5595703,1.0380859-2.5058594c0-0.9467773-0.3686523-1.8369141-1.0380859-2.5063477   L83.5009155,100.2745972z"></path><path d="M89.9140015,93.7922363l-1.4769897-1.4768066c-0.6694336-0.6694336-1.5595703-1.0380859-2.5058594-1.0380859   s-1.8364258,0.3686523-2.5058594,1.0380859S82.387207,93.875,82.387207,94.8212891   c0,0.9467773,0.3681641,1.8369141,1.0375977,2.5063477l1.5039062,1.5037231l1.8696289,1.8693237   c1.3808594,1.3808594,3.6293945,1.3818359,5.012207,0c1.3818359-1.3818359,1.3818359-3.6303711,0-5.012207L89.9140015,93.7922363z"></path><path d="M96.3109131,87.3262939l-1.5101318-1.510376c-0.690918-0.690918-1.5986328-1.0361328-2.5063477-1.0361328   S90.4794922,85.125,89.7885742,85.815918c-0.6694336,0.6694336-1.0380859,1.5595703-1.0380859,2.5063477   c0,0.9462891,0.3686523,1.8364258,1.0380859,2.5058594l1.5370483,1.5372925l1.8359985,1.8362427   c1.3823242,1.3823242,3.6308594,1.3813477,5.012207,0c1.3813477-1.3818359,1.3813477-3.6303711,0-5.012207L96.3109131,87.3262939z"></path><path d="M55.1445312,73.390625c0.4796143-0.4799194,1.078064-0.7739258,1.7113037-0.8790283   c0.522583-0.086731,1.0684814-0.0471191,1.5943604,0.1431885c1.1640625,0.4213867,1.9560547,1.449707,2.0678711,2.6831055   l0.8989258,9.953125c0.2270508,2.5146484,1.7949219,4.7299805,4.0908203,5.78125   c0.3212891,0.1469727,0.6865234,0.1401367,1.0024414-0.0200195c0.315918-0.159668,0.5380859-0.4501953,0.6098633-0.7963867   l4.2236328-20.394043c0.253418-1.2236328-0.1943359-2.4697266-1.168457-3.2519531L68.1721191,65l-1.9880371-1.5976562   c-0.3505859-0.2592773-9.3896484-6.7988281-20.8808594-0.6704102l-0.6572266,0.3505859l-9.9737549-10.0683594   c-2.923584,1.4089355-5.3972778,2.9973755-7.4779663,4.6306152C27.7020874,58.4778442,28,59.4530029,28,60.5   c0,3.0375366-2.4624634,5.5-5.5,5.5c-0.9450684,0-1.8342285-0.2388306-2.611084-0.6587524   c-0.0313721,0.0454102-0.0666504,0.0932007-0.0974121,0.1382446c-2.7108154,3.9692993-3.6513062,7.2210083-3.8016968,7.7866821   l9.5004272,9.5004272l0.0488281,0.3261719c0.4892578,3.2871094,1.7148438,6.0463867,3.6425781,8.2021484   c0.9868164,1.1035156,2.3530273,1.7338867,3.847168,1.7753906c1.5014648,0.034668,2.980957-0.5454102,4.046875-1.6113281   L55.1445312,73.390625z"></path><path d="M17,60.5c0-3.0375977,2.4624634-5.5,5.5-5.5c1.2554321,0,2.4088745,0.425354,3.3345947,1.1334229   c2.0794678-1.635376,4.515564-3.2064209,7.3512573-4.619812l-4.4939575-4.5365601   c-0.6303711-0.6362305-1.4829102-0.9819336-2.3549805-0.9819336c-0.2919922,0-0.5859375,0.0390625-0.8745117,0.1181641   C20.3369141,47.5253906,11.293457,51.6435547,8.3081055,63.359375c-0.2792969,1.0932617,0.0595703,2.284668,0.8842773,3.109375   l5.1932373,5.1932373c0.5215454-1.548645,1.6734009-4.3691406,3.9250488-7.6032715C17.4946899,63.0991821,17,61.8582153,17,60.5z"></path><path d="M56.5614624,46.7289429c0.4874878,0.6547241,1.0012817,1.3079834,1.5965576,1.861145   c2.1414795,1.9899292,5.2261963,1.7473145,7.0546875-0.5137329c0.3057251-0.3781128,0.6222534-0.7512817,0.8898315-1.1558228   c3.2903442-4.9746704,18.4453125-26.7018433,20.6192017-29.4231567c1.109314-1.3886719,1.0165405-2.9889526-0.1795654-4.1538086   c-1.131897-1.102356-2.8192749-1.1577148-4.1056519-0.0426636c-2.4570923,2.1298218-18.3112793,18.4532471-21.7089233,22.2305908   c-1.409729-1.2874756-7.3727417-5.5905762-8.8482666-6.5125732c-1.9833374-1.2392578-4.2929077-0.3374634-4.8378906,1.9019775   c-0.2749023,1.1296997,0.2130737,2.0673828,0.8453369,2.9271851C50.8757935,37.9125977,53.5483398,42.682251,56.5614624,46.7289429   z"></path></g></svg>