<?xml version="1.0" ?><!DOCTYPE svg  PUBLIC '-//W3C//DTD SVG 1.1//EN'  'http://www.w3.org/Graphics/SVG/1.1/DTD/svg11.dtd'><svg height="2048px" style="shape-rendering:geometricPrecision; text-rendering:geometricPrecision; image-rendering:optimizeQuality; fill-rule:evenodd; clip-rule:evenodd" viewBox="0 0 2048 2048" width="2048px" xml:space="preserve" xmlns="http://www.w3.org/2000/svg" xmlns:xlink="http://www.w3.org/1999/xlink"><defs><style type="text/css">
   <![CDATA[
    .fil1 {fill:none}
    .fil0 {fill:#424242}
   ]]>
  </style></defs><g id="Layer_x0020_1"><path class="fil0" d="M1775.85 1005.17c0,-202.44 -82.6583,-385.735 -216.295,-518.431 -133.621,-132.678 -318.168,-214.743 -521.966,-214.743 -203.973,0 -388.611,82.0371 -522.294,214.644 -133.742,132.666 -216.442,315.926 -216.442,518.275 0,67.9241 9.3945,133.838 26.9232,196.482 17.4177,62.2418 42.8977,121.174 75.1973,175.567l-127.945 377.906 -10.115 29.876 30.0532 -9.56339 393.525 -125.235c52.0996,28.0394 107.843,50.0079 166.363,64.9808 58.9595,15.0827 120.752,23.0929 184.498,23.0929 203.883,0 388.464,-82.0406 522.111,-214.642 133.703,-132.659 216.388,-315.9 216.388,-518.21zm-1087.79 -365.022l0 0zm176.738 288.594l0 0zm-6.45945 21.8882c7.19764,12.4264 25.3122,41.9233 52.1174,75.0331 16.5614,20.4567 36.3922,42.2587 58.9241,62.2028 62.993,55.7717 118.264,79.6205 146.642,91.8639 5.60906,2.42008 10.1575,4.38426 14.8228,6.71812 7.29922,3.58583 12.5705,5.1567 16.4055,4.6937 2.7626,-0.333071 5.58071,-2.35984 8.84764,-6.08032l0 -0.0625985c7.65355,-8.6941 25.6122,-29.4 40.6642,-47.8394 9.50434,-11.6421 18.1996,-22.761 23.1366,-30.1748l0.0295276 0.0188977c9.82914,-14.8878 20.4319,-21.1477 32.5866,-22.5189 10.7209,-1.20827 20.7201,1.90866 32.1969,6.03071 8.15906,2.92796 28.7634,12.3449 51.9508,23.3067 35.8831,16.9618 77.8619,37.487 89.9965,43.6583l-0.0106299 0.0200788c3.1878,1.5437 6.50434,3.10866 9.60828,4.57441 17.5961,8.30788 29.3268,13.8473 36.1087,25.0193l0.0625985 0.0625985c4.45985,7.45158 6.84804,26.739 3.8315,51.2528 -2.07638,16.8756 -6.55512,37.3784 -14.4756,59.4473 -8.87717,24.6827 -32.0646,48.1252 -58.6276,66.6745 -32.0209,22.3595 -70.0725,38.2843 -93.332,40.4693 -5.16615,0.477166 -9.93898,1.63347 -14.8299,2.81693 -28.7233,6.94961 -60.88,14.7319 -238.59,-54.6119 -195.89,-76.5095 -324.749,-264.971 -352.779,-305.966 -2.3811,-3.48307 -3.99213,-5.83937 -4.42914,-6.40276l-0.125197 -0.125197 -0.102756 -0.135827 0.0401575 -0.0295276c-11.1532,-14.6988 -87.0509,-114.789 -87.0509,-220.038 0,-100.336 49.702,-152.58 72.502,-176.547 1.14331,-1.20118 2.19685,-2.30788 3.5941,-3.81851 9.58229,-10.5284 20.0528,-17.6811 30.202,-22.4303 13.6843,-6.4063 26.6811,-8.38465 36.2233,-8.38465 7.17638,0 14.7709,0.480709 22.0878,0.944883 5.85119,0.370866 11.498,0.728741 17.2441,0.728741 1.39252,0 2.43425,-0.068504 3.51614,-0.138189 16.4669,-1.07008 37.9347,-2.46614 57.3591,43.8461 2.06221,4.91339 12.5776,30.3095 23.6032,56.941 17.2477,41.6575 35.9611,86.8536 39.202,93.3839l-0.0236221 0.011811c3.31536,6.49134 6.03308,13.7386 6.87402,21.8587 0.903544,8.72363 -0.338977,18.0366 -5.19567,27.8244l-0.0625985 0.0614174c-1.01339,2.02205 -2.02205,4.08071 -2.98347,6.04489 -5.52402,11.2819 -9.61536,19.6417 -19.487,31.1209l-0.0625985 0.0625985c-4.05473,4.67126 -7.39016,8.68111 -10.7232,12.6874 -7.3193,8.79686 -14.6138,17.5642 -21.0591,24.0012l0.0295276 0.034252c-5.82874,5.82874 -12.1406,12.1453 -6.45945,21.8882z"/></g><rect class="fil1" height="2048" width="2048"/></svg>